%
M48
M72
T01C0.01024
T02C0.01181
T03C0.01378
T04C0.01772
T05C0.04000
%
T01
X82522Y138644
T02
X58743Y159412
X75416Y172463
X80908Y175278
X98782Y176026
X121518Y171164
X126400Y175396
X121892Y110790
X109589Y104451
X119038Y98408
X123762Y94786
X130061Y97709
X157620Y83605
X157620Y76046
X122148Y46676
X111597Y46676
X111557Y57227
X101046Y57227
X101046Y46676
X90494Y46676
X79943Y46676
X90494Y57227
X90494Y36124
X101046Y36124
X111597Y36124
X65327Y86804
X67758Y94412
X78408Y97463
X54825Y110869
X44628Y118250
X42817Y103762
X42975Y85337
X54786Y78565
X22660Y78024
X22050Y185809
T03
X16361Y145180
X82502Y130219
T04
X13841Y13841
X13841Y108329
X11006Y190376
X188329Y108880
X192109Y190534
X188014Y13211
T05
X124353Y129195
X133250Y131321
X124983Y145416
X134038Y147109
X124195Y161479
X133880Y163014
X133880Y179077
X183880Y179077
X183880Y163014
X184038Y147109
X183250Y131321
X74353Y129195
X67502Y121557
X67187Y137581
X74983Y145416
X67345Y153014
X74195Y161479
X67187Y168447
X17187Y168447
X17345Y153014
X17187Y137581
X17502Y121557
M30
