G75*
%MOIN*%
%OFA0B0*%
%FSLAX25Y25*%
%IPPOS*%
%LPD*%
%AMOC8*
5,1,8,0,0,1.08239X$1,22.5*
%
%ADD10C,0.04000*%
%ADD11C,0.02781*%
%ADD12OC8,0.06000*%
%ADD13R,0.08800X0.04800*%
%ADD14R,0.08661X0.14173*%
%ADD15C,0.00600*%
%ADD16C,0.03378*%
%ADD17C,0.01200*%
%ADD18C,0.03181*%
%ADD19C,0.03024*%
D10*
X0012817Y0092581D02*
X0012819Y0092669D01*
X0012825Y0092757D01*
X0012835Y0092845D01*
X0012849Y0092933D01*
X0012866Y0093019D01*
X0012888Y0093105D01*
X0012913Y0093189D01*
X0012943Y0093273D01*
X0012975Y0093355D01*
X0013012Y0093435D01*
X0013052Y0093514D01*
X0013096Y0093591D01*
X0013143Y0093666D01*
X0013193Y0093738D01*
X0013247Y0093809D01*
X0013303Y0093876D01*
X0013363Y0093942D01*
X0013425Y0094004D01*
X0013491Y0094064D01*
X0013558Y0094120D01*
X0013629Y0094174D01*
X0013701Y0094224D01*
X0013776Y0094271D01*
X0013853Y0094315D01*
X0013932Y0094355D01*
X0014012Y0094392D01*
X0014094Y0094424D01*
X0014178Y0094454D01*
X0014262Y0094479D01*
X0014348Y0094501D01*
X0014434Y0094518D01*
X0014522Y0094532D01*
X0014610Y0094542D01*
X0014698Y0094548D01*
X0014786Y0094550D01*
X0014874Y0094548D01*
X0014962Y0094542D01*
X0015050Y0094532D01*
X0015138Y0094518D01*
X0015224Y0094501D01*
X0015310Y0094479D01*
X0015394Y0094454D01*
X0015478Y0094424D01*
X0015560Y0094392D01*
X0015640Y0094355D01*
X0015719Y0094315D01*
X0015796Y0094271D01*
X0015871Y0094224D01*
X0015943Y0094174D01*
X0016014Y0094120D01*
X0016081Y0094064D01*
X0016147Y0094004D01*
X0016209Y0093942D01*
X0016269Y0093876D01*
X0016325Y0093809D01*
X0016379Y0093738D01*
X0016429Y0093666D01*
X0016476Y0093591D01*
X0016520Y0093514D01*
X0016560Y0093435D01*
X0016597Y0093355D01*
X0016629Y0093273D01*
X0016659Y0093189D01*
X0016684Y0093105D01*
X0016706Y0093019D01*
X0016723Y0092933D01*
X0016737Y0092845D01*
X0016747Y0092757D01*
X0016753Y0092669D01*
X0016755Y0092581D01*
X0016753Y0092493D01*
X0016747Y0092405D01*
X0016737Y0092317D01*
X0016723Y0092229D01*
X0016706Y0092143D01*
X0016684Y0092057D01*
X0016659Y0091973D01*
X0016629Y0091889D01*
X0016597Y0091807D01*
X0016560Y0091727D01*
X0016520Y0091648D01*
X0016476Y0091571D01*
X0016429Y0091496D01*
X0016379Y0091424D01*
X0016325Y0091353D01*
X0016269Y0091286D01*
X0016209Y0091220D01*
X0016147Y0091158D01*
X0016081Y0091098D01*
X0016014Y0091042D01*
X0015943Y0090988D01*
X0015871Y0090938D01*
X0015796Y0090891D01*
X0015719Y0090847D01*
X0015640Y0090807D01*
X0015560Y0090770D01*
X0015478Y0090738D01*
X0015394Y0090708D01*
X0015310Y0090683D01*
X0015224Y0090661D01*
X0015138Y0090644D01*
X0015050Y0090630D01*
X0014962Y0090620D01*
X0014874Y0090614D01*
X0014786Y0090612D01*
X0014698Y0090614D01*
X0014610Y0090620D01*
X0014522Y0090630D01*
X0014434Y0090644D01*
X0014348Y0090661D01*
X0014262Y0090683D01*
X0014178Y0090708D01*
X0014094Y0090738D01*
X0014012Y0090770D01*
X0013932Y0090807D01*
X0013853Y0090847D01*
X0013776Y0090891D01*
X0013701Y0090938D01*
X0013629Y0090988D01*
X0013558Y0091042D01*
X0013491Y0091098D01*
X0013425Y0091158D01*
X0013363Y0091220D01*
X0013303Y0091286D01*
X0013247Y0091353D01*
X0013193Y0091424D01*
X0013143Y0091496D01*
X0013096Y0091571D01*
X0013052Y0091648D01*
X0013012Y0091727D01*
X0012975Y0091807D01*
X0012943Y0091889D01*
X0012913Y0091973D01*
X0012888Y0092057D01*
X0012866Y0092143D01*
X0012849Y0092229D01*
X0012835Y0092317D01*
X0012825Y0092405D01*
X0012819Y0092493D01*
X0012817Y0092581D01*
D11*
X0079943Y0046676D03*
X0090494Y0046676D03*
X0090494Y0057227D03*
X0101046Y0057227D03*
X0111557Y0057227D03*
X0111597Y0046676D03*
X0122148Y0046676D03*
X0111597Y0036124D03*
X0101046Y0036124D03*
X0090494Y0036124D03*
X0101046Y0046676D03*
D12*
X0067502Y0121557D03*
X0074353Y0129195D03*
X0067187Y0137581D03*
X0074983Y0145416D03*
X0067345Y0153014D03*
X0074195Y0161479D03*
X0067187Y0168447D03*
X0017187Y0168447D03*
X0017345Y0153014D03*
X0017187Y0137581D03*
X0017502Y0121557D03*
X0124353Y0129195D03*
X0133250Y0131321D03*
X0124983Y0145416D03*
X0134038Y0147109D03*
X0124195Y0161479D03*
X0133880Y0163014D03*
X0133880Y0179077D03*
X0183880Y0179077D03*
X0183880Y0163014D03*
X0184038Y0147109D03*
X0183250Y0131321D03*
D13*
X0146405Y0129083D03*
X0146641Y0138284D03*
X0146641Y0147384D03*
X0146641Y0156484D03*
X0146405Y0165843D03*
X0146405Y0174943D03*
X0146405Y0184043D03*
X0089318Y0180421D03*
X0089318Y0171321D03*
X0089318Y0162221D03*
X0089239Y0153020D03*
X0089239Y0143920D03*
X0089239Y0134820D03*
X0089161Y0125461D03*
X0089161Y0116361D03*
X0089161Y0107261D03*
X0146405Y0110883D03*
X0146405Y0119983D03*
X0146562Y0101051D03*
X0146562Y0091951D03*
X0146562Y0082851D03*
X0030578Y0085056D03*
X0030578Y0094156D03*
X0030578Y0103256D03*
X0030499Y0112615D03*
X0030499Y0121715D03*
X0030499Y0130815D03*
X0030578Y0140331D03*
X0030578Y0149431D03*
X0030578Y0158531D03*
X0030342Y0168048D03*
X0030342Y0177148D03*
X0030342Y0186248D03*
D14*
X0054743Y0177148D03*
X0054979Y0149431D03*
X0054900Y0121715D03*
X0054979Y0094156D03*
X0113561Y0116361D03*
X0113640Y0143920D03*
X0113719Y0171321D03*
X0170806Y0174943D03*
X0171042Y0147384D03*
X0170806Y0119983D03*
X0170963Y0091951D03*
D15*
X0056991Y0072266D02*
X0056991Y0045180D01*
X0072896Y0029274D01*
X0104746Y0029274D01*
X0111597Y0036124D01*
X0101046Y0036124D02*
X0101046Y0031203D01*
X0100928Y0031164D01*
X0073683Y0031164D01*
X0059353Y0045494D01*
X0059353Y0081400D01*
X0057148Y0083605D01*
X0052109Y0083605D01*
X0043850Y0075346D01*
X0035957Y0075346D01*
X0033280Y0078024D01*
X0022660Y0078024D01*
X0017463Y0081243D02*
X0033054Y0081243D01*
X0036361Y0077935D01*
X0043447Y0077935D01*
X0050849Y0085337D01*
X0058565Y0085337D01*
X0062975Y0082502D01*
X0062975Y0044235D01*
X0073998Y0033211D01*
X0097778Y0033211D01*
X0097778Y0041243D01*
X0093132Y0046676D01*
X0090494Y0046676D01*
X0090396Y0046676D01*
X0090494Y0053959D02*
X0090494Y0057227D01*
X0090494Y0053959D02*
X0099294Y0043270D01*
X0138132Y0044215D01*
X0171469Y0077551D01*
X0172885Y0077551D01*
X0172954Y0077620D01*
X0173526Y0077620D01*
X0193743Y0097837D01*
X0193743Y0179057D01*
X0183900Y0179057D01*
X0183880Y0179077D01*
X0183408Y0179057D01*
X0175042Y0179057D01*
X0171105Y0175120D01*
X0170806Y0174943D01*
X0170613Y0175120D01*
X0146498Y0175120D01*
X0146405Y0174943D01*
X0151006Y0170691D02*
X0140298Y0170691D01*
X0138250Y0172739D01*
X0135731Y0172739D01*
X0140613Y0177620D01*
X0140613Y0179668D01*
X0144929Y0183984D01*
X0146037Y0183984D01*
X0146405Y0184043D01*
X0146037Y0183984D02*
X0146006Y0183979D01*
X0135731Y0172739D02*
X0129057Y0172739D01*
X0126400Y0175396D01*
X0121518Y0171164D02*
X0115987Y0171183D01*
X0114018Y0171183D01*
X0113719Y0171321D01*
X0113526Y0171183D01*
X0089412Y0171183D01*
X0089318Y0171321D01*
X0083605Y0177035D01*
X0083605Y0183447D01*
X0077104Y0189948D01*
X0022389Y0190578D01*
X0008487Y0175731D01*
X0008487Y0090219D01*
X0017463Y0081243D01*
X0030357Y0085061D02*
X0030578Y0085056D01*
X0030849Y0085061D01*
X0030578Y0094156D02*
X0030849Y0094412D01*
X0054963Y0094412D01*
X0054979Y0094156D01*
X0055455Y0094412D01*
X0067758Y0094412D01*
X0065327Y0086804D02*
X0065195Y0052107D01*
X0065169Y0045347D01*
X0074943Y0035573D01*
X0089943Y0035573D01*
X0090494Y0036124D01*
X0100731Y0036341D02*
X0100889Y0036232D01*
X0101046Y0036124D01*
X0101085Y0046676D02*
X0101046Y0046676D01*
X0101085Y0046676D02*
X0101400Y0046991D01*
X0101400Y0049746D01*
X0098093Y0053054D01*
X0098093Y0059038D01*
X0100691Y0061636D01*
X0100691Y0080061D01*
X0119038Y0098408D01*
X0118565Y0094786D02*
X0123762Y0094786D01*
X0118565Y0094786D02*
X0103132Y0079353D01*
X0103132Y0059313D01*
X0101046Y0057227D01*
X0108172Y0059510D02*
X0108172Y0050101D01*
X0111597Y0046676D01*
X0112050Y0046676D01*
X0122148Y0046676D02*
X0129353Y0046676D01*
X0157620Y0076046D01*
X0157620Y0083605D02*
X0149274Y0091951D01*
X0146562Y0091951D01*
X0170963Y0091951D01*
X0176518Y0091951D01*
X0176518Y0124924D01*
X0182916Y0131321D01*
X0183250Y0131321D01*
X0179195Y0135731D02*
X0188172Y0135731D01*
X0188172Y0146243D01*
X0187345Y0147069D01*
X0184392Y0147069D01*
X0184038Y0147109D01*
X0188172Y0135731D02*
X0188172Y0129431D01*
X0182916Y0124176D01*
X0182916Y0089845D01*
X0172222Y0079151D01*
X0141624Y0079151D01*
X0141619Y0079156D01*
X0133211Y0079156D01*
X0111557Y0057502D01*
X0111557Y0057227D01*
X0108172Y0059510D02*
X0128959Y0080298D01*
X0130061Y0097709D01*
X0132739Y0101557D02*
X0137778Y0096518D01*
X0137778Y0084077D01*
X0139038Y0082817D01*
X0139072Y0082851D01*
X0146562Y0082851D01*
X0146498Y0083093D01*
X0144530Y0085061D01*
X0145514Y0091951D02*
X0146562Y0091951D01*
X0146562Y0101051D02*
X0143162Y0104451D01*
X0109589Y0104451D01*
X0113561Y0116361D02*
X0114018Y0116557D01*
X0114018Y0128861D01*
X0124353Y0128861D01*
X0124353Y0129195D01*
X0119309Y0134829D02*
X0116561Y0134829D01*
X0115135Y0134820D01*
X0089239Y0134820D01*
X0077744Y0134820D01*
X0070061Y0142502D01*
X0065337Y0142502D01*
X0063605Y0140770D01*
X0061439Y0140770D01*
X0061361Y0140849D01*
X0031095Y0140849D01*
X0030578Y0140331D01*
X0030849Y0140672D01*
X0031341Y0141164D01*
X0031735Y0140770D01*
X0030578Y0149431D02*
X0030849Y0149530D01*
X0054963Y0149530D01*
X0054979Y0149431D01*
X0061361Y0157896D02*
X0061361Y0140849D01*
X0067187Y0137581D02*
X0067266Y0137227D01*
X0066912Y0136872D01*
X0066912Y0129904D01*
X0058723Y0121715D01*
X0054900Y0121715D01*
X0054900Y0110943D01*
X0054825Y0110869D01*
X0054963Y0121479D02*
X0056124Y0121479D01*
X0054963Y0121479D02*
X0054900Y0121715D01*
X0054471Y0121971D01*
X0030849Y0121971D01*
X0030499Y0121715D01*
X0024235Y0124550D02*
X0024235Y0109860D01*
X0024837Y0108843D01*
X0030357Y0103323D01*
X0030357Y0103270D02*
X0030578Y0103256D01*
X0035278Y0107699D02*
X0044628Y0107699D01*
X0044628Y0118250D01*
X0044628Y0107699D02*
X0088920Y0107699D01*
X0089161Y0107261D01*
X0089412Y0107699D01*
X0143054Y0107699D01*
X0146006Y0110652D01*
X0146405Y0119983D02*
X0146498Y0120002D01*
X0170613Y0120002D01*
X0170806Y0119983D01*
X0174918Y0124095D01*
X0174918Y0125586D01*
X0176203Y0126871D01*
X0176203Y0132739D01*
X0179195Y0135731D01*
X0170613Y0147069D02*
X0171042Y0147384D01*
X0171105Y0147561D01*
X0171105Y0150514D01*
X0183408Y0162817D01*
X0183880Y0163014D01*
X0170613Y0147069D02*
X0159510Y0147069D01*
X0155258Y0142817D01*
X0155258Y0128329D01*
X0151479Y0124550D01*
X0135652Y0124550D01*
X0121892Y0110790D01*
X0113561Y0116361D02*
X0113526Y0116557D01*
X0089412Y0116557D01*
X0089161Y0116361D01*
X0089161Y0125461D02*
X0088920Y0125908D01*
X0084609Y0130219D01*
X0082502Y0130219D01*
X0088920Y0134766D02*
X0089239Y0134820D01*
X0089678Y0135258D01*
X0089412Y0135258D02*
X0089239Y0134820D01*
X0082522Y0138644D02*
X0082522Y0147719D01*
X0087778Y0152975D01*
X0088920Y0152975D01*
X0089239Y0153020D01*
X0089318Y0162221D02*
X0118599Y0162221D01*
X0123762Y0167384D01*
X0139353Y0167384D01*
X0141085Y0165652D01*
X0146213Y0165652D01*
X0146405Y0165843D01*
X0146006Y0166262D01*
X0145022Y0167246D01*
X0151006Y0170691D02*
X0153369Y0168329D01*
X0153369Y0156833D01*
X0146695Y0156833D01*
X0146282Y0156420D01*
X0146498Y0156420D01*
X0146641Y0156484D01*
X0146991Y0156912D01*
X0146282Y0156420D02*
X0143703Y0156420D01*
X0143605Y0156518D01*
X0141872Y0151479D02*
X0140770Y0150376D01*
X0140770Y0144550D01*
X0142817Y0142502D01*
X0151794Y0142502D01*
X0153211Y0141085D01*
X0153211Y0135258D01*
X0147306Y0129353D01*
X0146498Y0129353D02*
X0146405Y0129083D01*
X0146410Y0138122D02*
X0133241Y0138122D01*
X0133211Y0138093D01*
X0121156Y0138093D01*
X0119309Y0134829D01*
X0114018Y0144117D02*
X0113640Y0143920D01*
X0113526Y0144117D01*
X0089412Y0144117D01*
X0089239Y0143920D01*
X0089318Y0162221D02*
X0089412Y0162325D01*
X0089318Y0162221D02*
X0088920Y0162325D01*
X0081498Y0169746D01*
X0075416Y0169746D01*
X0075416Y0172463D01*
X0075416Y0169746D02*
X0069353Y0163683D01*
X0065101Y0163683D01*
X0062975Y0165809D01*
X0042187Y0165809D01*
X0040258Y0167739D01*
X0030357Y0167739D01*
X0030342Y0168048D01*
X0030072Y0159038D02*
X0016203Y0159038D01*
X0012581Y0155258D01*
X0012581Y0148878D01*
X0012576Y0135102D01*
X0017342Y0130337D01*
X0030357Y0130337D01*
X0030499Y0130815D01*
X0024235Y0124550D01*
X0030061Y0130376D02*
X0030499Y0130815D01*
X0030499Y0112615D02*
X0030849Y0112128D01*
X0035278Y0107699D01*
X0042817Y0103762D02*
X0078408Y0103762D01*
X0080613Y0101557D01*
X0132739Y0101557D01*
X0146498Y0101302D02*
X0146562Y0101051D01*
X0170806Y0119983D02*
X0171105Y0120002D01*
X0146641Y0138284D02*
X0146498Y0138211D01*
X0146410Y0138122D01*
X0146991Y0147069D02*
X0146641Y0147384D01*
X0146991Y0147069D02*
X0159510Y0147069D01*
X0153369Y0153526D02*
X0153369Y0156833D01*
X0153369Y0153526D02*
X0151321Y0151479D01*
X0141872Y0151479D01*
X0134195Y0147561D02*
X0134038Y0147109D01*
X0124983Y0145416D02*
X0124845Y0145101D01*
X0115002Y0145101D01*
X0114018Y0144117D01*
X0089318Y0171321D02*
X0088920Y0171676D01*
X0089530Y0179924D02*
X0094884Y0179924D01*
X0098782Y0176026D01*
X0089530Y0179924D02*
X0089412Y0180042D01*
X0089318Y0180421D01*
X0080908Y0175278D02*
X0072615Y0186248D01*
X0030342Y0186248D01*
X0026406Y0186248D01*
X0024940Y0184783D01*
X0024940Y0184612D01*
X0023247Y0182919D01*
X0023076Y0182919D01*
X0012581Y0172266D01*
X0012581Y0162817D01*
X0016203Y0159038D01*
X0017345Y0153014D02*
X0017561Y0152975D01*
X0026912Y0152975D01*
X0030357Y0149530D01*
X0030578Y0149431D01*
X0030578Y0158531D02*
X0030072Y0159038D01*
X0030357Y0158880D02*
X0030578Y0158531D01*
X0017561Y0168231D02*
X0017187Y0168447D01*
X0030357Y0177089D02*
X0030342Y0177148D01*
X0030357Y0177089D02*
X0054471Y0177089D01*
X0054743Y0177148D01*
X0054963Y0177089D01*
X0063329Y0168723D01*
X0066774Y0168723D01*
X0067187Y0168447D01*
X0069353Y0163683D02*
X0069274Y0163605D01*
X0074195Y0161479D02*
X0074156Y0161341D01*
X0061361Y0157896D02*
X0058743Y0159412D01*
X0030357Y0185947D02*
X0030342Y0186248D01*
X0029865Y0185947D01*
X0029097Y0185947D01*
X0078408Y0097463D02*
X0078565Y0057463D01*
X0080140Y0055888D01*
X0080140Y0046872D01*
X0079943Y0046676D01*
X0101085Y0046676D02*
X0101223Y0046676D01*
X0056991Y0072266D02*
X0054786Y0075416D01*
X0054786Y0078565D01*
D16*
X0082502Y0130219D03*
X0016361Y0145180D03*
D17*
X0022030Y0163605D02*
X0062030Y0163605D01*
X0067384Y0158250D01*
X0067384Y0153014D01*
X0074983Y0145416D01*
X0067384Y0153014D02*
X0067345Y0153014D01*
X0074156Y0159825D01*
X0074156Y0161341D01*
X0087823Y0153020D02*
X0089239Y0153020D01*
X0111636Y0132739D02*
X0120298Y0132739D01*
X0122660Y0135101D01*
X0129471Y0135101D01*
X0133250Y0131321D01*
X0146498Y0129353D02*
X0147306Y0129353D01*
X0146991Y0156912D02*
X0149195Y0156912D01*
X0111636Y0132739D02*
X0099668Y0120770D01*
X0082778Y0120770D01*
X0074353Y0129195D01*
X0087261Y0125461D02*
X0089161Y0125461D01*
X0042975Y0085337D02*
X0042694Y0085056D01*
X0030578Y0085056D01*
X0030357Y0085061D02*
X0025140Y0085061D01*
X0021715Y0088487D01*
X0021715Y0110061D01*
X0016518Y0115258D01*
X0014628Y0115258D01*
X0010534Y0119668D01*
X0010534Y0173821D01*
X0022050Y0185809D01*
X0017187Y0168447D02*
X0022030Y0163605D01*
X0030357Y0103323D02*
X0030357Y0103270D01*
D18*
X0042817Y0103762D03*
X0054825Y0110869D03*
X0044628Y0118250D03*
X0067758Y0094412D03*
X0065327Y0086804D03*
X0054786Y0078565D03*
X0042975Y0085337D03*
X0022660Y0078024D03*
X0078408Y0097463D03*
X0109589Y0104451D03*
X0119038Y0098408D03*
X0123762Y0094786D03*
X0130061Y0097709D03*
X0121892Y0110790D03*
X0157620Y0083605D03*
X0157620Y0076046D03*
X0121518Y0171164D03*
X0126400Y0175396D03*
X0098782Y0176026D03*
X0080908Y0175278D03*
X0075416Y0172463D03*
X0058743Y0159412D03*
X0022050Y0185809D03*
D19*
X0082522Y0138644D03*
M02*
