G75*
%MOIN*%
%OFA0B0*%
%FSLAX25Y25*%
%IPPOS*%
%LPD*%
%AMOC8*
5,1,8,0,0,1.08239X$1,22.5*
%
%ADD10C,0.00800*%
%ADD11C,0.00400*%
D10*
X0035778Y0081256D02*
X0049778Y0081256D01*
X0049778Y0107056D01*
X0035778Y0107056D01*
X0035778Y0081256D01*
X0035699Y0108815D02*
X0049699Y0108815D01*
X0049699Y0134615D01*
X0035699Y0134615D01*
X0035699Y0108815D01*
X0035778Y0136531D02*
X0049778Y0136531D01*
X0049778Y0162331D01*
X0035778Y0162331D01*
X0035778Y0136531D01*
X0035542Y0164248D02*
X0049542Y0164248D01*
X0049542Y0190048D01*
X0035542Y0190048D01*
X0035542Y0164248D01*
X0094518Y0158421D02*
X0108518Y0158421D01*
X0108518Y0184221D01*
X0094518Y0184221D01*
X0094518Y0158421D01*
X0094439Y0156820D02*
X0094439Y0131020D01*
X0108439Y0131020D01*
X0108439Y0156820D01*
X0094439Y0156820D01*
X0094361Y0129261D02*
X0094361Y0103461D01*
X0108361Y0103461D01*
X0108361Y0129261D01*
X0094361Y0129261D01*
X0151605Y0132883D02*
X0151605Y0107083D01*
X0165605Y0107083D01*
X0165605Y0132883D01*
X0151605Y0132883D01*
X0151841Y0134484D02*
X0165841Y0134484D01*
X0165841Y0160284D01*
X0151841Y0160284D01*
X0151841Y0134484D01*
X0151605Y0162043D02*
X0165605Y0162043D01*
X0165605Y0187843D01*
X0151605Y0187843D01*
X0151605Y0162043D01*
X0151762Y0104851D02*
X0151762Y0079051D01*
X0165762Y0079051D01*
X0165762Y0104851D01*
X0151762Y0104851D01*
D11*
X0025978Y0082319D02*
X0025978Y0080763D01*
X0025978Y0081541D02*
X0028778Y0081541D01*
X0028156Y0080763D01*
X0025941Y0089275D02*
X0025941Y0090830D01*
X0025941Y0089275D02*
X0027496Y0090597D01*
X0028741Y0090130D02*
X0028739Y0090074D01*
X0028734Y0090017D01*
X0028725Y0089961D01*
X0028713Y0089906D01*
X0028697Y0089852D01*
X0028678Y0089799D01*
X0028655Y0089747D01*
X0028630Y0089697D01*
X0028601Y0089648D01*
X0028569Y0089601D01*
X0028534Y0089557D01*
X0028497Y0089514D01*
X0028457Y0089474D01*
X0028415Y0089437D01*
X0028370Y0089402D01*
X0028323Y0089371D01*
X0028274Y0089342D01*
X0028224Y0089316D01*
X0028172Y0089294D01*
X0028119Y0089275D01*
X0027496Y0090597D02*
X0027533Y0090632D01*
X0027571Y0090665D01*
X0027612Y0090696D01*
X0027654Y0090723D01*
X0027699Y0090748D01*
X0027745Y0090769D01*
X0027792Y0090788D01*
X0027840Y0090803D01*
X0027890Y0090815D01*
X0027940Y0090823D01*
X0027990Y0090828D01*
X0028041Y0090830D01*
X0028091Y0090828D01*
X0028141Y0090823D01*
X0028190Y0090814D01*
X0028238Y0090802D01*
X0028286Y0090786D01*
X0028332Y0090767D01*
X0028376Y0090744D01*
X0028419Y0090719D01*
X0028460Y0090690D01*
X0028499Y0090659D01*
X0028536Y0090625D01*
X0028570Y0090588D01*
X0028601Y0090549D01*
X0028630Y0090508D01*
X0028655Y0090465D01*
X0028678Y0090421D01*
X0028697Y0090375D01*
X0028713Y0090327D01*
X0028725Y0090279D01*
X0028734Y0090230D01*
X0028739Y0090180D01*
X0028741Y0090130D01*
X0028778Y0098375D02*
X0028778Y0099308D01*
X0028776Y0099357D01*
X0028770Y0099405D01*
X0028761Y0099453D01*
X0028748Y0099500D01*
X0028731Y0099546D01*
X0028710Y0099590D01*
X0028686Y0099633D01*
X0028659Y0099674D01*
X0028629Y0099712D01*
X0028596Y0099748D01*
X0028560Y0099781D01*
X0028522Y0099811D01*
X0028481Y0099838D01*
X0028438Y0099862D01*
X0028394Y0099883D01*
X0028348Y0099900D01*
X0028301Y0099913D01*
X0028253Y0099922D01*
X0028205Y0099928D01*
X0028156Y0099930D01*
X0028107Y0099928D01*
X0028059Y0099922D01*
X0028011Y0099913D01*
X0027964Y0099900D01*
X0027918Y0099883D01*
X0027874Y0099862D01*
X0027831Y0099838D01*
X0027790Y0099811D01*
X0027752Y0099781D01*
X0027716Y0099748D01*
X0027683Y0099712D01*
X0027653Y0099674D01*
X0027626Y0099633D01*
X0027602Y0099590D01*
X0027581Y0099546D01*
X0027564Y0099500D01*
X0027551Y0099453D01*
X0027542Y0099405D01*
X0027536Y0099357D01*
X0027534Y0099308D01*
X0027534Y0098686D01*
X0027534Y0099153D02*
X0027532Y0099209D01*
X0027526Y0099264D01*
X0027516Y0099318D01*
X0027502Y0099372D01*
X0027485Y0099425D01*
X0027464Y0099476D01*
X0027439Y0099526D01*
X0027410Y0099574D01*
X0027379Y0099619D01*
X0027344Y0099662D01*
X0027306Y0099703D01*
X0027265Y0099741D01*
X0027222Y0099776D01*
X0027177Y0099807D01*
X0027129Y0099836D01*
X0027079Y0099861D01*
X0027028Y0099882D01*
X0026975Y0099899D01*
X0026921Y0099913D01*
X0026867Y0099923D01*
X0026812Y0099929D01*
X0026756Y0099931D01*
X0026700Y0099929D01*
X0026645Y0099923D01*
X0026591Y0099913D01*
X0026537Y0099899D01*
X0026484Y0099882D01*
X0026433Y0099861D01*
X0026383Y0099836D01*
X0026335Y0099807D01*
X0026290Y0099776D01*
X0026247Y0099741D01*
X0026206Y0099703D01*
X0026168Y0099662D01*
X0026133Y0099619D01*
X0026102Y0099574D01*
X0026073Y0099526D01*
X0026048Y0099476D01*
X0026027Y0099425D01*
X0026010Y0099372D01*
X0025996Y0099318D01*
X0025986Y0099264D01*
X0025980Y0099209D01*
X0025978Y0099153D01*
X0025978Y0098375D01*
X0025899Y0108322D02*
X0025899Y0109878D01*
X0025899Y0109100D02*
X0028699Y0109100D01*
X0028077Y0108322D01*
X0025862Y0116834D02*
X0025862Y0118389D01*
X0025862Y0116834D02*
X0027418Y0118156D01*
X0028662Y0117689D02*
X0028660Y0117633D01*
X0028655Y0117576D01*
X0028646Y0117520D01*
X0028634Y0117465D01*
X0028618Y0117411D01*
X0028599Y0117358D01*
X0028576Y0117306D01*
X0028551Y0117256D01*
X0028522Y0117207D01*
X0028490Y0117160D01*
X0028455Y0117116D01*
X0028418Y0117073D01*
X0028378Y0117033D01*
X0028336Y0116996D01*
X0028291Y0116961D01*
X0028244Y0116930D01*
X0028195Y0116901D01*
X0028145Y0116875D01*
X0028093Y0116853D01*
X0028040Y0116834D01*
X0027417Y0118157D02*
X0027454Y0118192D01*
X0027492Y0118225D01*
X0027533Y0118256D01*
X0027575Y0118283D01*
X0027620Y0118308D01*
X0027666Y0118329D01*
X0027713Y0118348D01*
X0027761Y0118363D01*
X0027811Y0118375D01*
X0027861Y0118383D01*
X0027911Y0118388D01*
X0027962Y0118390D01*
X0027962Y0118389D02*
X0028012Y0118387D01*
X0028062Y0118382D01*
X0028111Y0118373D01*
X0028159Y0118361D01*
X0028207Y0118345D01*
X0028253Y0118326D01*
X0028297Y0118303D01*
X0028340Y0118278D01*
X0028381Y0118249D01*
X0028420Y0118218D01*
X0028457Y0118184D01*
X0028491Y0118147D01*
X0028522Y0118108D01*
X0028551Y0118067D01*
X0028576Y0118024D01*
X0028599Y0117980D01*
X0028618Y0117934D01*
X0028634Y0117886D01*
X0028646Y0117838D01*
X0028655Y0117789D01*
X0028660Y0117739D01*
X0028662Y0117689D01*
X0028699Y0125934D02*
X0028699Y0126867D01*
X0028697Y0126916D01*
X0028691Y0126964D01*
X0028682Y0127012D01*
X0028669Y0127059D01*
X0028652Y0127105D01*
X0028631Y0127149D01*
X0028607Y0127192D01*
X0028580Y0127233D01*
X0028550Y0127271D01*
X0028517Y0127307D01*
X0028481Y0127340D01*
X0028443Y0127370D01*
X0028402Y0127397D01*
X0028359Y0127421D01*
X0028315Y0127442D01*
X0028269Y0127459D01*
X0028222Y0127472D01*
X0028174Y0127481D01*
X0028126Y0127487D01*
X0028077Y0127489D01*
X0028028Y0127487D01*
X0027980Y0127481D01*
X0027932Y0127472D01*
X0027885Y0127459D01*
X0027839Y0127442D01*
X0027795Y0127421D01*
X0027752Y0127397D01*
X0027711Y0127370D01*
X0027673Y0127340D01*
X0027637Y0127307D01*
X0027604Y0127271D01*
X0027574Y0127233D01*
X0027547Y0127192D01*
X0027523Y0127149D01*
X0027502Y0127105D01*
X0027485Y0127059D01*
X0027472Y0127012D01*
X0027463Y0126964D01*
X0027457Y0126916D01*
X0027455Y0126867D01*
X0027455Y0126245D01*
X0027455Y0126712D02*
X0027453Y0126768D01*
X0027447Y0126823D01*
X0027437Y0126877D01*
X0027423Y0126931D01*
X0027406Y0126984D01*
X0027385Y0127035D01*
X0027360Y0127085D01*
X0027331Y0127133D01*
X0027300Y0127178D01*
X0027265Y0127221D01*
X0027227Y0127262D01*
X0027186Y0127300D01*
X0027143Y0127335D01*
X0027098Y0127366D01*
X0027050Y0127395D01*
X0027000Y0127420D01*
X0026949Y0127441D01*
X0026896Y0127458D01*
X0026842Y0127472D01*
X0026788Y0127482D01*
X0026733Y0127488D01*
X0026677Y0127490D01*
X0026621Y0127488D01*
X0026566Y0127482D01*
X0026512Y0127472D01*
X0026458Y0127458D01*
X0026405Y0127441D01*
X0026354Y0127420D01*
X0026304Y0127395D01*
X0026256Y0127366D01*
X0026211Y0127335D01*
X0026168Y0127300D01*
X0026127Y0127262D01*
X0026089Y0127221D01*
X0026054Y0127178D01*
X0026023Y0127133D01*
X0025994Y0127085D01*
X0025969Y0127035D01*
X0025948Y0126984D01*
X0025931Y0126931D01*
X0025917Y0126877D01*
X0025907Y0126823D01*
X0025901Y0126768D01*
X0025899Y0126712D01*
X0025899Y0125934D01*
X0025978Y0136039D02*
X0025978Y0137594D01*
X0025978Y0136816D02*
X0028778Y0136816D01*
X0028156Y0136039D01*
X0025941Y0144550D02*
X0025941Y0146106D01*
X0025941Y0144550D02*
X0027496Y0145873D01*
X0028741Y0145406D02*
X0028739Y0145350D01*
X0028734Y0145293D01*
X0028725Y0145237D01*
X0028713Y0145182D01*
X0028697Y0145128D01*
X0028678Y0145075D01*
X0028655Y0145023D01*
X0028630Y0144973D01*
X0028601Y0144924D01*
X0028569Y0144877D01*
X0028534Y0144833D01*
X0028497Y0144790D01*
X0028457Y0144750D01*
X0028415Y0144713D01*
X0028370Y0144678D01*
X0028323Y0144647D01*
X0028274Y0144618D01*
X0028224Y0144592D01*
X0028172Y0144570D01*
X0028119Y0144551D01*
X0027496Y0145873D02*
X0027533Y0145908D01*
X0027571Y0145941D01*
X0027612Y0145972D01*
X0027654Y0145999D01*
X0027699Y0146024D01*
X0027745Y0146045D01*
X0027792Y0146064D01*
X0027840Y0146079D01*
X0027890Y0146091D01*
X0027940Y0146099D01*
X0027990Y0146104D01*
X0028041Y0146106D01*
X0028091Y0146104D01*
X0028141Y0146099D01*
X0028190Y0146090D01*
X0028238Y0146078D01*
X0028286Y0146062D01*
X0028332Y0146043D01*
X0028376Y0146020D01*
X0028419Y0145995D01*
X0028460Y0145966D01*
X0028499Y0145935D01*
X0028536Y0145901D01*
X0028570Y0145864D01*
X0028601Y0145825D01*
X0028630Y0145784D01*
X0028655Y0145741D01*
X0028678Y0145697D01*
X0028697Y0145651D01*
X0028713Y0145603D01*
X0028725Y0145555D01*
X0028734Y0145506D01*
X0028739Y0145456D01*
X0028741Y0145406D01*
X0028778Y0153650D02*
X0028778Y0154584D01*
X0028776Y0154633D01*
X0028770Y0154681D01*
X0028761Y0154729D01*
X0028748Y0154776D01*
X0028731Y0154822D01*
X0028710Y0154866D01*
X0028686Y0154909D01*
X0028659Y0154950D01*
X0028629Y0154988D01*
X0028596Y0155024D01*
X0028560Y0155057D01*
X0028522Y0155087D01*
X0028481Y0155114D01*
X0028438Y0155138D01*
X0028394Y0155159D01*
X0028348Y0155176D01*
X0028301Y0155189D01*
X0028253Y0155198D01*
X0028205Y0155204D01*
X0028156Y0155206D01*
X0028107Y0155204D01*
X0028059Y0155198D01*
X0028011Y0155189D01*
X0027964Y0155176D01*
X0027918Y0155159D01*
X0027874Y0155138D01*
X0027831Y0155114D01*
X0027790Y0155087D01*
X0027752Y0155057D01*
X0027716Y0155024D01*
X0027683Y0154988D01*
X0027653Y0154950D01*
X0027626Y0154909D01*
X0027602Y0154866D01*
X0027581Y0154822D01*
X0027564Y0154776D01*
X0027551Y0154729D01*
X0027542Y0154681D01*
X0027536Y0154633D01*
X0027534Y0154584D01*
X0027534Y0153962D01*
X0027534Y0154428D02*
X0027532Y0154484D01*
X0027526Y0154539D01*
X0027516Y0154593D01*
X0027502Y0154647D01*
X0027485Y0154700D01*
X0027464Y0154751D01*
X0027439Y0154801D01*
X0027410Y0154849D01*
X0027379Y0154894D01*
X0027344Y0154937D01*
X0027306Y0154978D01*
X0027265Y0155016D01*
X0027222Y0155051D01*
X0027177Y0155082D01*
X0027129Y0155111D01*
X0027079Y0155136D01*
X0027028Y0155157D01*
X0026975Y0155174D01*
X0026921Y0155188D01*
X0026867Y0155198D01*
X0026812Y0155204D01*
X0026756Y0155206D01*
X0026700Y0155204D01*
X0026645Y0155198D01*
X0026591Y0155188D01*
X0026537Y0155174D01*
X0026484Y0155157D01*
X0026433Y0155136D01*
X0026383Y0155111D01*
X0026335Y0155082D01*
X0026290Y0155051D01*
X0026247Y0155016D01*
X0026206Y0154978D01*
X0026168Y0154937D01*
X0026133Y0154894D01*
X0026102Y0154849D01*
X0026073Y0154801D01*
X0026048Y0154751D01*
X0026027Y0154700D01*
X0026010Y0154647D01*
X0025996Y0154593D01*
X0025986Y0154539D01*
X0025980Y0154484D01*
X0025978Y0154428D01*
X0025978Y0153650D01*
X0025742Y0163755D02*
X0025742Y0165311D01*
X0025742Y0164533D02*
X0028542Y0164533D01*
X0027920Y0163755D01*
X0025705Y0172267D02*
X0025705Y0173822D01*
X0025705Y0172267D02*
X0027260Y0173589D01*
X0028504Y0173122D02*
X0028502Y0173066D01*
X0028497Y0173009D01*
X0028488Y0172953D01*
X0028476Y0172898D01*
X0028460Y0172844D01*
X0028441Y0172791D01*
X0028418Y0172739D01*
X0028393Y0172689D01*
X0028364Y0172640D01*
X0028332Y0172593D01*
X0028297Y0172549D01*
X0028260Y0172506D01*
X0028220Y0172466D01*
X0028178Y0172429D01*
X0028133Y0172394D01*
X0028086Y0172363D01*
X0028037Y0172334D01*
X0027987Y0172308D01*
X0027935Y0172286D01*
X0027882Y0172267D01*
X0027260Y0173590D02*
X0027297Y0173625D01*
X0027335Y0173658D01*
X0027376Y0173689D01*
X0027418Y0173716D01*
X0027463Y0173741D01*
X0027509Y0173762D01*
X0027556Y0173781D01*
X0027604Y0173796D01*
X0027654Y0173808D01*
X0027704Y0173816D01*
X0027754Y0173821D01*
X0027805Y0173823D01*
X0027805Y0173822D02*
X0027855Y0173820D01*
X0027905Y0173815D01*
X0027954Y0173806D01*
X0028002Y0173794D01*
X0028050Y0173778D01*
X0028096Y0173759D01*
X0028140Y0173736D01*
X0028183Y0173711D01*
X0028224Y0173682D01*
X0028263Y0173651D01*
X0028300Y0173617D01*
X0028334Y0173580D01*
X0028365Y0173541D01*
X0028394Y0173500D01*
X0028419Y0173457D01*
X0028442Y0173413D01*
X0028461Y0173367D01*
X0028477Y0173319D01*
X0028489Y0173271D01*
X0028498Y0173222D01*
X0028503Y0173172D01*
X0028505Y0173122D01*
X0028542Y0181367D02*
X0028542Y0182300D01*
X0028540Y0182349D01*
X0028534Y0182397D01*
X0028525Y0182445D01*
X0028512Y0182492D01*
X0028495Y0182538D01*
X0028474Y0182582D01*
X0028450Y0182625D01*
X0028423Y0182666D01*
X0028393Y0182704D01*
X0028360Y0182740D01*
X0028324Y0182773D01*
X0028286Y0182803D01*
X0028245Y0182830D01*
X0028202Y0182854D01*
X0028158Y0182875D01*
X0028112Y0182892D01*
X0028065Y0182905D01*
X0028017Y0182914D01*
X0027969Y0182920D01*
X0027920Y0182922D01*
X0027871Y0182920D01*
X0027823Y0182914D01*
X0027775Y0182905D01*
X0027728Y0182892D01*
X0027682Y0182875D01*
X0027638Y0182854D01*
X0027595Y0182830D01*
X0027554Y0182803D01*
X0027516Y0182773D01*
X0027480Y0182740D01*
X0027447Y0182704D01*
X0027417Y0182666D01*
X0027390Y0182625D01*
X0027366Y0182582D01*
X0027345Y0182538D01*
X0027328Y0182492D01*
X0027315Y0182445D01*
X0027306Y0182397D01*
X0027300Y0182349D01*
X0027298Y0182300D01*
X0027297Y0182300D02*
X0027297Y0181678D01*
X0027298Y0182145D02*
X0027296Y0182201D01*
X0027290Y0182256D01*
X0027280Y0182310D01*
X0027266Y0182364D01*
X0027249Y0182417D01*
X0027228Y0182468D01*
X0027203Y0182518D01*
X0027174Y0182566D01*
X0027143Y0182611D01*
X0027108Y0182654D01*
X0027070Y0182695D01*
X0027029Y0182733D01*
X0026986Y0182768D01*
X0026941Y0182799D01*
X0026893Y0182828D01*
X0026843Y0182853D01*
X0026792Y0182874D01*
X0026739Y0182891D01*
X0026685Y0182905D01*
X0026631Y0182915D01*
X0026576Y0182921D01*
X0026520Y0182923D01*
X0026464Y0182921D01*
X0026409Y0182915D01*
X0026355Y0182905D01*
X0026301Y0182891D01*
X0026248Y0182874D01*
X0026197Y0182853D01*
X0026147Y0182828D01*
X0026099Y0182799D01*
X0026054Y0182768D01*
X0026011Y0182733D01*
X0025970Y0182695D01*
X0025932Y0182654D01*
X0025897Y0182611D01*
X0025866Y0182566D01*
X0025837Y0182518D01*
X0025812Y0182468D01*
X0025791Y0182417D01*
X0025774Y0182364D01*
X0025760Y0182310D01*
X0025750Y0182256D01*
X0025744Y0182201D01*
X0025742Y0182145D01*
X0025742Y0181367D01*
X0052742Y0185937D02*
X0053986Y0185937D01*
X0053364Y0186404D02*
X0053364Y0184848D01*
X0055542Y0185470D01*
X0053600Y0158687D02*
X0053600Y0157131D01*
X0055778Y0157754D01*
X0054222Y0158220D02*
X0052978Y0158220D01*
X0053521Y0130971D02*
X0053521Y0129415D01*
X0055699Y0130037D01*
X0054144Y0130504D02*
X0052899Y0130504D01*
X0053600Y0103411D02*
X0053600Y0101856D01*
X0055778Y0102478D01*
X0054222Y0102945D02*
X0052978Y0102945D01*
X0084561Y0102968D02*
X0084561Y0104523D01*
X0084561Y0103745D02*
X0087361Y0103745D01*
X0086738Y0102968D01*
X0084524Y0111480D02*
X0084524Y0113035D01*
X0084524Y0111480D02*
X0086079Y0112802D01*
X0087323Y0112335D02*
X0087321Y0112279D01*
X0087316Y0112222D01*
X0087307Y0112166D01*
X0087295Y0112111D01*
X0087279Y0112057D01*
X0087260Y0112004D01*
X0087237Y0111952D01*
X0087212Y0111902D01*
X0087183Y0111853D01*
X0087151Y0111806D01*
X0087116Y0111762D01*
X0087079Y0111719D01*
X0087039Y0111679D01*
X0086997Y0111642D01*
X0086952Y0111607D01*
X0086905Y0111576D01*
X0086856Y0111547D01*
X0086806Y0111521D01*
X0086754Y0111499D01*
X0086701Y0111480D01*
X0086079Y0112802D02*
X0086116Y0112837D01*
X0086154Y0112870D01*
X0086195Y0112901D01*
X0086237Y0112928D01*
X0086282Y0112953D01*
X0086328Y0112974D01*
X0086375Y0112993D01*
X0086423Y0113008D01*
X0086473Y0113020D01*
X0086523Y0113028D01*
X0086573Y0113033D01*
X0086624Y0113035D01*
X0086674Y0113033D01*
X0086724Y0113028D01*
X0086773Y0113019D01*
X0086821Y0113007D01*
X0086869Y0112991D01*
X0086915Y0112972D01*
X0086959Y0112949D01*
X0087002Y0112924D01*
X0087043Y0112895D01*
X0087082Y0112864D01*
X0087119Y0112830D01*
X0087153Y0112793D01*
X0087184Y0112754D01*
X0087213Y0112713D01*
X0087238Y0112670D01*
X0087261Y0112626D01*
X0087280Y0112580D01*
X0087296Y0112532D01*
X0087308Y0112484D01*
X0087317Y0112435D01*
X0087322Y0112385D01*
X0087324Y0112335D01*
X0087361Y0120580D02*
X0087361Y0121513D01*
X0087360Y0121513D02*
X0087358Y0121562D01*
X0087352Y0121610D01*
X0087343Y0121658D01*
X0087330Y0121705D01*
X0087313Y0121751D01*
X0087292Y0121795D01*
X0087268Y0121838D01*
X0087241Y0121879D01*
X0087211Y0121917D01*
X0087178Y0121953D01*
X0087142Y0121986D01*
X0087104Y0122016D01*
X0087063Y0122043D01*
X0087020Y0122067D01*
X0086976Y0122088D01*
X0086930Y0122105D01*
X0086883Y0122118D01*
X0086835Y0122127D01*
X0086787Y0122133D01*
X0086738Y0122135D01*
X0086689Y0122133D01*
X0086641Y0122127D01*
X0086593Y0122118D01*
X0086546Y0122105D01*
X0086500Y0122088D01*
X0086456Y0122067D01*
X0086413Y0122043D01*
X0086372Y0122016D01*
X0086334Y0121986D01*
X0086298Y0121953D01*
X0086265Y0121917D01*
X0086235Y0121879D01*
X0086208Y0121838D01*
X0086184Y0121795D01*
X0086163Y0121751D01*
X0086146Y0121705D01*
X0086133Y0121658D01*
X0086124Y0121610D01*
X0086118Y0121562D01*
X0086116Y0121513D01*
X0086116Y0120891D01*
X0086116Y0121357D02*
X0086114Y0121413D01*
X0086108Y0121468D01*
X0086098Y0121522D01*
X0086084Y0121576D01*
X0086067Y0121629D01*
X0086046Y0121680D01*
X0086021Y0121730D01*
X0085992Y0121778D01*
X0085961Y0121823D01*
X0085926Y0121866D01*
X0085888Y0121907D01*
X0085847Y0121945D01*
X0085804Y0121980D01*
X0085759Y0122011D01*
X0085711Y0122040D01*
X0085661Y0122065D01*
X0085610Y0122086D01*
X0085557Y0122103D01*
X0085503Y0122117D01*
X0085449Y0122127D01*
X0085394Y0122133D01*
X0085338Y0122135D01*
X0085282Y0122133D01*
X0085227Y0122127D01*
X0085173Y0122117D01*
X0085119Y0122103D01*
X0085066Y0122086D01*
X0085015Y0122065D01*
X0084965Y0122040D01*
X0084917Y0122011D01*
X0084872Y0121980D01*
X0084829Y0121945D01*
X0084788Y0121907D01*
X0084750Y0121866D01*
X0084715Y0121823D01*
X0084684Y0121778D01*
X0084655Y0121730D01*
X0084630Y0121680D01*
X0084609Y0121629D01*
X0084592Y0121576D01*
X0084578Y0121522D01*
X0084568Y0121468D01*
X0084562Y0121413D01*
X0084560Y0121357D01*
X0084561Y0121357D02*
X0084561Y0120580D01*
X0084639Y0130527D02*
X0084639Y0132082D01*
X0084639Y0131305D02*
X0087439Y0131305D01*
X0086817Y0130527D01*
X0084602Y0139039D02*
X0084602Y0140594D01*
X0084602Y0139039D02*
X0086158Y0140361D01*
X0087402Y0139894D02*
X0087400Y0139838D01*
X0087395Y0139781D01*
X0087386Y0139725D01*
X0087374Y0139670D01*
X0087358Y0139616D01*
X0087339Y0139563D01*
X0087316Y0139511D01*
X0087291Y0139461D01*
X0087262Y0139412D01*
X0087230Y0139365D01*
X0087195Y0139321D01*
X0087158Y0139278D01*
X0087118Y0139238D01*
X0087076Y0139201D01*
X0087031Y0139166D01*
X0086984Y0139135D01*
X0086935Y0139106D01*
X0086885Y0139080D01*
X0086833Y0139058D01*
X0086780Y0139039D01*
X0086157Y0140361D02*
X0086194Y0140396D01*
X0086232Y0140429D01*
X0086273Y0140460D01*
X0086315Y0140487D01*
X0086360Y0140512D01*
X0086406Y0140533D01*
X0086453Y0140552D01*
X0086501Y0140567D01*
X0086551Y0140579D01*
X0086601Y0140587D01*
X0086651Y0140592D01*
X0086702Y0140594D01*
X0086752Y0140592D01*
X0086802Y0140587D01*
X0086851Y0140578D01*
X0086899Y0140566D01*
X0086947Y0140550D01*
X0086993Y0140531D01*
X0087037Y0140508D01*
X0087080Y0140483D01*
X0087121Y0140454D01*
X0087160Y0140423D01*
X0087197Y0140389D01*
X0087231Y0140352D01*
X0087262Y0140313D01*
X0087291Y0140272D01*
X0087316Y0140229D01*
X0087339Y0140185D01*
X0087358Y0140139D01*
X0087374Y0140091D01*
X0087386Y0140043D01*
X0087395Y0139994D01*
X0087400Y0139944D01*
X0087402Y0139894D01*
X0087439Y0148139D02*
X0087439Y0149072D01*
X0087437Y0149121D01*
X0087431Y0149169D01*
X0087422Y0149217D01*
X0087409Y0149264D01*
X0087392Y0149310D01*
X0087371Y0149354D01*
X0087347Y0149397D01*
X0087320Y0149438D01*
X0087290Y0149476D01*
X0087257Y0149512D01*
X0087221Y0149545D01*
X0087183Y0149575D01*
X0087142Y0149602D01*
X0087099Y0149626D01*
X0087055Y0149647D01*
X0087009Y0149664D01*
X0086962Y0149677D01*
X0086914Y0149686D01*
X0086866Y0149692D01*
X0086817Y0149694D01*
X0086768Y0149692D01*
X0086720Y0149686D01*
X0086672Y0149677D01*
X0086625Y0149664D01*
X0086579Y0149647D01*
X0086535Y0149626D01*
X0086492Y0149602D01*
X0086451Y0149575D01*
X0086413Y0149545D01*
X0086377Y0149512D01*
X0086344Y0149476D01*
X0086314Y0149438D01*
X0086287Y0149397D01*
X0086263Y0149354D01*
X0086242Y0149310D01*
X0086225Y0149264D01*
X0086212Y0149217D01*
X0086203Y0149169D01*
X0086197Y0149121D01*
X0086195Y0149072D01*
X0086195Y0148450D01*
X0086195Y0148916D02*
X0086193Y0148972D01*
X0086187Y0149027D01*
X0086177Y0149081D01*
X0086163Y0149135D01*
X0086146Y0149188D01*
X0086125Y0149239D01*
X0086100Y0149289D01*
X0086071Y0149337D01*
X0086040Y0149382D01*
X0086005Y0149425D01*
X0085967Y0149466D01*
X0085926Y0149504D01*
X0085883Y0149539D01*
X0085838Y0149570D01*
X0085790Y0149599D01*
X0085740Y0149624D01*
X0085689Y0149645D01*
X0085636Y0149662D01*
X0085582Y0149676D01*
X0085528Y0149686D01*
X0085473Y0149692D01*
X0085417Y0149694D01*
X0085361Y0149692D01*
X0085306Y0149686D01*
X0085252Y0149676D01*
X0085198Y0149662D01*
X0085145Y0149645D01*
X0085094Y0149624D01*
X0085044Y0149599D01*
X0084996Y0149570D01*
X0084951Y0149539D01*
X0084908Y0149504D01*
X0084867Y0149466D01*
X0084829Y0149425D01*
X0084794Y0149382D01*
X0084763Y0149337D01*
X0084734Y0149289D01*
X0084709Y0149239D01*
X0084688Y0149188D01*
X0084671Y0149135D01*
X0084657Y0149081D01*
X0084647Y0149027D01*
X0084641Y0148972D01*
X0084639Y0148916D01*
X0084639Y0148139D01*
X0084718Y0157928D02*
X0084718Y0159484D01*
X0084718Y0158706D02*
X0087518Y0158706D01*
X0086896Y0157928D01*
X0084681Y0166440D02*
X0084681Y0167996D01*
X0084681Y0166440D02*
X0086237Y0167762D01*
X0087481Y0167296D02*
X0087479Y0167240D01*
X0087474Y0167183D01*
X0087465Y0167127D01*
X0087453Y0167072D01*
X0087437Y0167018D01*
X0087418Y0166965D01*
X0087395Y0166913D01*
X0087370Y0166863D01*
X0087341Y0166814D01*
X0087309Y0166767D01*
X0087274Y0166723D01*
X0087237Y0166680D01*
X0087197Y0166640D01*
X0087155Y0166603D01*
X0087110Y0166568D01*
X0087063Y0166537D01*
X0087014Y0166508D01*
X0086964Y0166482D01*
X0086912Y0166460D01*
X0086859Y0166441D01*
X0086236Y0167763D02*
X0086273Y0167798D01*
X0086311Y0167831D01*
X0086352Y0167862D01*
X0086394Y0167889D01*
X0086439Y0167914D01*
X0086485Y0167935D01*
X0086532Y0167954D01*
X0086580Y0167969D01*
X0086630Y0167981D01*
X0086680Y0167989D01*
X0086730Y0167994D01*
X0086781Y0167996D01*
X0086831Y0167994D01*
X0086881Y0167989D01*
X0086930Y0167980D01*
X0086978Y0167968D01*
X0087026Y0167952D01*
X0087072Y0167933D01*
X0087116Y0167910D01*
X0087159Y0167885D01*
X0087200Y0167856D01*
X0087239Y0167825D01*
X0087276Y0167791D01*
X0087310Y0167754D01*
X0087341Y0167715D01*
X0087370Y0167674D01*
X0087395Y0167631D01*
X0087418Y0167587D01*
X0087437Y0167541D01*
X0087453Y0167493D01*
X0087465Y0167445D01*
X0087474Y0167396D01*
X0087479Y0167346D01*
X0087481Y0167296D01*
X0087518Y0175540D02*
X0087518Y0176473D01*
X0087516Y0176522D01*
X0087510Y0176570D01*
X0087501Y0176618D01*
X0087488Y0176665D01*
X0087471Y0176711D01*
X0087450Y0176755D01*
X0087426Y0176798D01*
X0087399Y0176839D01*
X0087369Y0176877D01*
X0087336Y0176913D01*
X0087300Y0176946D01*
X0087262Y0176976D01*
X0087221Y0177003D01*
X0087178Y0177027D01*
X0087134Y0177048D01*
X0087088Y0177065D01*
X0087041Y0177078D01*
X0086993Y0177087D01*
X0086945Y0177093D01*
X0086896Y0177095D01*
X0086847Y0177093D01*
X0086799Y0177087D01*
X0086751Y0177078D01*
X0086704Y0177065D01*
X0086658Y0177048D01*
X0086614Y0177027D01*
X0086571Y0177003D01*
X0086530Y0176976D01*
X0086492Y0176946D01*
X0086456Y0176913D01*
X0086423Y0176877D01*
X0086393Y0176839D01*
X0086366Y0176798D01*
X0086342Y0176755D01*
X0086321Y0176711D01*
X0086304Y0176665D01*
X0086291Y0176618D01*
X0086282Y0176570D01*
X0086276Y0176522D01*
X0086274Y0176473D01*
X0086274Y0175851D01*
X0086274Y0176318D02*
X0086272Y0176374D01*
X0086266Y0176429D01*
X0086256Y0176483D01*
X0086242Y0176537D01*
X0086225Y0176590D01*
X0086204Y0176641D01*
X0086179Y0176691D01*
X0086150Y0176739D01*
X0086119Y0176784D01*
X0086084Y0176827D01*
X0086046Y0176868D01*
X0086005Y0176906D01*
X0085962Y0176941D01*
X0085917Y0176972D01*
X0085869Y0177001D01*
X0085819Y0177026D01*
X0085768Y0177047D01*
X0085715Y0177064D01*
X0085661Y0177078D01*
X0085607Y0177088D01*
X0085552Y0177094D01*
X0085496Y0177096D01*
X0085440Y0177094D01*
X0085385Y0177088D01*
X0085331Y0177078D01*
X0085277Y0177064D01*
X0085224Y0177047D01*
X0085173Y0177026D01*
X0085123Y0177001D01*
X0085075Y0176972D01*
X0085030Y0176941D01*
X0084987Y0176906D01*
X0084946Y0176868D01*
X0084908Y0176827D01*
X0084873Y0176784D01*
X0084842Y0176739D01*
X0084813Y0176691D01*
X0084788Y0176641D01*
X0084767Y0176590D01*
X0084750Y0176537D01*
X0084736Y0176483D01*
X0084726Y0176429D01*
X0084720Y0176374D01*
X0084718Y0176318D01*
X0084718Y0175540D01*
X0111718Y0180110D02*
X0112963Y0180110D01*
X0112340Y0180577D02*
X0112340Y0179021D01*
X0114518Y0179643D01*
X0112262Y0153175D02*
X0112262Y0151620D01*
X0114439Y0152242D01*
X0112884Y0152709D02*
X0111639Y0152709D01*
X0112183Y0125616D02*
X0112183Y0124061D01*
X0114361Y0124683D01*
X0112805Y0125150D02*
X0111561Y0125150D01*
X0141805Y0124979D02*
X0141805Y0124202D01*
X0141804Y0124979D02*
X0141806Y0125035D01*
X0141812Y0125090D01*
X0141822Y0125144D01*
X0141836Y0125198D01*
X0141853Y0125251D01*
X0141874Y0125302D01*
X0141899Y0125352D01*
X0141928Y0125400D01*
X0141959Y0125445D01*
X0141994Y0125488D01*
X0142032Y0125529D01*
X0142073Y0125567D01*
X0142116Y0125602D01*
X0142161Y0125633D01*
X0142209Y0125662D01*
X0142259Y0125687D01*
X0142310Y0125708D01*
X0142363Y0125725D01*
X0142417Y0125739D01*
X0142471Y0125749D01*
X0142526Y0125755D01*
X0142582Y0125757D01*
X0142638Y0125755D01*
X0142693Y0125749D01*
X0142747Y0125739D01*
X0142801Y0125725D01*
X0142854Y0125708D01*
X0142905Y0125687D01*
X0142955Y0125662D01*
X0143003Y0125633D01*
X0143048Y0125602D01*
X0143091Y0125567D01*
X0143132Y0125529D01*
X0143170Y0125488D01*
X0143205Y0125445D01*
X0143236Y0125400D01*
X0143265Y0125352D01*
X0143290Y0125302D01*
X0143311Y0125251D01*
X0143328Y0125198D01*
X0143342Y0125144D01*
X0143352Y0125090D01*
X0143358Y0125035D01*
X0143360Y0124979D01*
X0143360Y0125135D02*
X0143360Y0124513D01*
X0143360Y0125135D02*
X0143362Y0125184D01*
X0143368Y0125232D01*
X0143377Y0125280D01*
X0143390Y0125327D01*
X0143407Y0125373D01*
X0143428Y0125417D01*
X0143452Y0125460D01*
X0143479Y0125501D01*
X0143509Y0125539D01*
X0143542Y0125575D01*
X0143578Y0125608D01*
X0143616Y0125638D01*
X0143657Y0125665D01*
X0143700Y0125689D01*
X0143744Y0125710D01*
X0143790Y0125727D01*
X0143837Y0125740D01*
X0143885Y0125749D01*
X0143933Y0125755D01*
X0143982Y0125757D01*
X0144031Y0125755D01*
X0144079Y0125749D01*
X0144127Y0125740D01*
X0144174Y0125727D01*
X0144220Y0125710D01*
X0144264Y0125689D01*
X0144307Y0125665D01*
X0144348Y0125638D01*
X0144386Y0125608D01*
X0144422Y0125575D01*
X0144455Y0125539D01*
X0144485Y0125501D01*
X0144512Y0125460D01*
X0144536Y0125417D01*
X0144557Y0125373D01*
X0144574Y0125327D01*
X0144587Y0125280D01*
X0144596Y0125232D01*
X0144602Y0125184D01*
X0144604Y0125135D01*
X0144605Y0125135D02*
X0144605Y0124202D01*
X0141768Y0116657D02*
X0141768Y0115102D01*
X0143323Y0116424D01*
X0144567Y0115957D02*
X0144565Y0115901D01*
X0144560Y0115844D01*
X0144551Y0115788D01*
X0144539Y0115733D01*
X0144523Y0115679D01*
X0144504Y0115626D01*
X0144481Y0115574D01*
X0144456Y0115524D01*
X0144427Y0115475D01*
X0144395Y0115428D01*
X0144360Y0115384D01*
X0144323Y0115341D01*
X0144283Y0115301D01*
X0144241Y0115264D01*
X0144196Y0115229D01*
X0144149Y0115198D01*
X0144100Y0115169D01*
X0144050Y0115143D01*
X0143998Y0115121D01*
X0143945Y0115102D01*
X0143323Y0116424D02*
X0143360Y0116459D01*
X0143398Y0116492D01*
X0143439Y0116523D01*
X0143481Y0116550D01*
X0143526Y0116575D01*
X0143572Y0116596D01*
X0143619Y0116615D01*
X0143667Y0116630D01*
X0143717Y0116642D01*
X0143767Y0116650D01*
X0143817Y0116655D01*
X0143868Y0116657D01*
X0143918Y0116655D01*
X0143968Y0116650D01*
X0144017Y0116641D01*
X0144065Y0116629D01*
X0144113Y0116613D01*
X0144159Y0116594D01*
X0144203Y0116571D01*
X0144246Y0116546D01*
X0144287Y0116517D01*
X0144326Y0116486D01*
X0144363Y0116452D01*
X0144397Y0116415D01*
X0144428Y0116376D01*
X0144457Y0116335D01*
X0144482Y0116292D01*
X0144505Y0116248D01*
X0144524Y0116202D01*
X0144540Y0116154D01*
X0144552Y0116106D01*
X0144561Y0116057D01*
X0144566Y0116007D01*
X0144568Y0115957D01*
X0141805Y0108145D02*
X0141805Y0106590D01*
X0141805Y0107368D02*
X0144605Y0107368D01*
X0143982Y0106590D01*
X0143518Y0097103D02*
X0143520Y0097152D01*
X0143526Y0097200D01*
X0143535Y0097248D01*
X0143548Y0097295D01*
X0143565Y0097341D01*
X0143586Y0097385D01*
X0143610Y0097428D01*
X0143637Y0097469D01*
X0143667Y0097507D01*
X0143700Y0097543D01*
X0143736Y0097576D01*
X0143774Y0097606D01*
X0143815Y0097633D01*
X0143858Y0097657D01*
X0143902Y0097678D01*
X0143948Y0097695D01*
X0143995Y0097708D01*
X0144043Y0097717D01*
X0144091Y0097723D01*
X0144140Y0097725D01*
X0144189Y0097723D01*
X0144237Y0097717D01*
X0144285Y0097708D01*
X0144332Y0097695D01*
X0144378Y0097678D01*
X0144422Y0097657D01*
X0144465Y0097633D01*
X0144506Y0097606D01*
X0144544Y0097576D01*
X0144580Y0097543D01*
X0144613Y0097507D01*
X0144643Y0097469D01*
X0144670Y0097428D01*
X0144694Y0097385D01*
X0144715Y0097341D01*
X0144732Y0097295D01*
X0144745Y0097248D01*
X0144754Y0097200D01*
X0144760Y0097152D01*
X0144762Y0097103D01*
X0144762Y0096170D01*
X0143518Y0096481D02*
X0143518Y0097103D01*
X0143518Y0096948D02*
X0143516Y0097004D01*
X0143510Y0097059D01*
X0143500Y0097113D01*
X0143486Y0097167D01*
X0143469Y0097220D01*
X0143448Y0097271D01*
X0143423Y0097321D01*
X0143394Y0097369D01*
X0143363Y0097414D01*
X0143328Y0097457D01*
X0143290Y0097498D01*
X0143249Y0097536D01*
X0143206Y0097571D01*
X0143161Y0097602D01*
X0143113Y0097631D01*
X0143063Y0097656D01*
X0143012Y0097677D01*
X0142959Y0097694D01*
X0142905Y0097708D01*
X0142851Y0097718D01*
X0142796Y0097724D01*
X0142740Y0097726D01*
X0142684Y0097724D01*
X0142629Y0097718D01*
X0142575Y0097708D01*
X0142521Y0097694D01*
X0142468Y0097677D01*
X0142417Y0097656D01*
X0142367Y0097631D01*
X0142319Y0097602D01*
X0142274Y0097571D01*
X0142231Y0097536D01*
X0142190Y0097498D01*
X0142152Y0097457D01*
X0142117Y0097414D01*
X0142086Y0097369D01*
X0142057Y0097321D01*
X0142032Y0097271D01*
X0142011Y0097220D01*
X0141994Y0097167D01*
X0141980Y0097113D01*
X0141970Y0097059D01*
X0141964Y0097004D01*
X0141962Y0096948D01*
X0141962Y0096170D01*
X0141925Y0088626D02*
X0141925Y0087070D01*
X0143481Y0088392D01*
X0144725Y0087926D02*
X0144723Y0087870D01*
X0144718Y0087813D01*
X0144709Y0087757D01*
X0144697Y0087702D01*
X0144681Y0087648D01*
X0144662Y0087595D01*
X0144639Y0087543D01*
X0144614Y0087493D01*
X0144585Y0087444D01*
X0144553Y0087397D01*
X0144518Y0087353D01*
X0144481Y0087310D01*
X0144441Y0087270D01*
X0144399Y0087233D01*
X0144354Y0087198D01*
X0144307Y0087167D01*
X0144258Y0087138D01*
X0144208Y0087112D01*
X0144156Y0087090D01*
X0144103Y0087071D01*
X0143480Y0088393D02*
X0143517Y0088428D01*
X0143555Y0088461D01*
X0143596Y0088492D01*
X0143638Y0088519D01*
X0143683Y0088544D01*
X0143729Y0088565D01*
X0143776Y0088584D01*
X0143824Y0088599D01*
X0143874Y0088611D01*
X0143924Y0088619D01*
X0143974Y0088624D01*
X0144025Y0088626D01*
X0144075Y0088624D01*
X0144125Y0088619D01*
X0144174Y0088610D01*
X0144222Y0088598D01*
X0144270Y0088582D01*
X0144316Y0088563D01*
X0144360Y0088540D01*
X0144403Y0088515D01*
X0144444Y0088486D01*
X0144483Y0088455D01*
X0144520Y0088421D01*
X0144554Y0088384D01*
X0144585Y0088345D01*
X0144614Y0088304D01*
X0144639Y0088261D01*
X0144662Y0088217D01*
X0144681Y0088171D01*
X0144697Y0088123D01*
X0144709Y0088075D01*
X0144718Y0088026D01*
X0144723Y0087976D01*
X0144725Y0087926D01*
X0141962Y0080114D02*
X0141962Y0078558D01*
X0141962Y0079336D02*
X0144762Y0079336D01*
X0144140Y0078558D01*
X0169584Y0099651D02*
X0169584Y0101207D01*
X0168962Y0100740D02*
X0170207Y0100740D01*
X0169584Y0099651D02*
X0171762Y0100273D01*
X0169427Y0127683D02*
X0169427Y0129238D01*
X0170049Y0128772D02*
X0168805Y0128772D01*
X0169427Y0127683D02*
X0171605Y0128305D01*
X0144841Y0134769D02*
X0144219Y0133991D01*
X0144841Y0134769D02*
X0142041Y0134769D01*
X0142041Y0133991D02*
X0142041Y0135547D01*
X0142004Y0142503D02*
X0142004Y0144059D01*
X0142004Y0142503D02*
X0143559Y0143825D01*
X0144804Y0143359D02*
X0144802Y0143303D01*
X0144797Y0143246D01*
X0144788Y0143190D01*
X0144776Y0143135D01*
X0144760Y0143081D01*
X0144741Y0143028D01*
X0144718Y0142976D01*
X0144693Y0142926D01*
X0144664Y0142877D01*
X0144632Y0142830D01*
X0144597Y0142786D01*
X0144560Y0142743D01*
X0144520Y0142703D01*
X0144478Y0142666D01*
X0144433Y0142631D01*
X0144386Y0142600D01*
X0144337Y0142571D01*
X0144287Y0142545D01*
X0144235Y0142523D01*
X0144182Y0142504D01*
X0143559Y0143826D02*
X0143596Y0143861D01*
X0143634Y0143894D01*
X0143675Y0143925D01*
X0143717Y0143952D01*
X0143762Y0143977D01*
X0143808Y0143998D01*
X0143855Y0144017D01*
X0143903Y0144032D01*
X0143953Y0144044D01*
X0144003Y0144052D01*
X0144053Y0144057D01*
X0144104Y0144059D01*
X0144154Y0144057D01*
X0144204Y0144052D01*
X0144253Y0144043D01*
X0144301Y0144031D01*
X0144349Y0144015D01*
X0144395Y0143996D01*
X0144439Y0143973D01*
X0144482Y0143948D01*
X0144523Y0143919D01*
X0144562Y0143888D01*
X0144599Y0143854D01*
X0144633Y0143817D01*
X0144664Y0143778D01*
X0144693Y0143737D01*
X0144718Y0143694D01*
X0144741Y0143650D01*
X0144760Y0143604D01*
X0144776Y0143556D01*
X0144788Y0143508D01*
X0144797Y0143459D01*
X0144802Y0143409D01*
X0144804Y0143359D01*
X0144841Y0151603D02*
X0144841Y0152536D01*
X0144839Y0152585D01*
X0144833Y0152633D01*
X0144824Y0152681D01*
X0144811Y0152728D01*
X0144794Y0152774D01*
X0144773Y0152818D01*
X0144749Y0152861D01*
X0144722Y0152902D01*
X0144692Y0152940D01*
X0144659Y0152976D01*
X0144623Y0153009D01*
X0144585Y0153039D01*
X0144544Y0153066D01*
X0144501Y0153090D01*
X0144457Y0153111D01*
X0144411Y0153128D01*
X0144364Y0153141D01*
X0144316Y0153150D01*
X0144268Y0153156D01*
X0144219Y0153158D01*
X0144170Y0153156D01*
X0144122Y0153150D01*
X0144074Y0153141D01*
X0144027Y0153128D01*
X0143981Y0153111D01*
X0143937Y0153090D01*
X0143894Y0153066D01*
X0143853Y0153039D01*
X0143815Y0153009D01*
X0143779Y0152976D01*
X0143746Y0152940D01*
X0143716Y0152902D01*
X0143689Y0152861D01*
X0143665Y0152818D01*
X0143644Y0152774D01*
X0143627Y0152728D01*
X0143614Y0152681D01*
X0143605Y0152633D01*
X0143599Y0152585D01*
X0143597Y0152536D01*
X0143596Y0152536D02*
X0143596Y0151914D01*
X0143597Y0152381D02*
X0143595Y0152437D01*
X0143589Y0152492D01*
X0143579Y0152546D01*
X0143565Y0152600D01*
X0143548Y0152653D01*
X0143527Y0152704D01*
X0143502Y0152754D01*
X0143473Y0152802D01*
X0143442Y0152847D01*
X0143407Y0152890D01*
X0143369Y0152931D01*
X0143328Y0152969D01*
X0143285Y0153004D01*
X0143240Y0153035D01*
X0143192Y0153064D01*
X0143142Y0153089D01*
X0143091Y0153110D01*
X0143038Y0153127D01*
X0142984Y0153141D01*
X0142930Y0153151D01*
X0142875Y0153157D01*
X0142819Y0153159D01*
X0142763Y0153157D01*
X0142708Y0153151D01*
X0142654Y0153141D01*
X0142600Y0153127D01*
X0142547Y0153110D01*
X0142496Y0153089D01*
X0142446Y0153064D01*
X0142398Y0153035D01*
X0142353Y0153004D01*
X0142310Y0152969D01*
X0142269Y0152931D01*
X0142231Y0152890D01*
X0142196Y0152847D01*
X0142165Y0152802D01*
X0142136Y0152754D01*
X0142111Y0152704D01*
X0142090Y0152653D01*
X0142073Y0152600D01*
X0142059Y0152546D01*
X0142049Y0152492D01*
X0142043Y0152437D01*
X0142041Y0152381D01*
X0142041Y0151603D01*
X0141805Y0161550D02*
X0141805Y0163106D01*
X0141805Y0162328D02*
X0144605Y0162328D01*
X0143982Y0161550D01*
X0141768Y0170062D02*
X0141768Y0171618D01*
X0141768Y0170062D02*
X0143323Y0171384D01*
X0144567Y0170918D02*
X0144565Y0170862D01*
X0144560Y0170805D01*
X0144551Y0170749D01*
X0144539Y0170694D01*
X0144523Y0170640D01*
X0144504Y0170587D01*
X0144481Y0170535D01*
X0144456Y0170485D01*
X0144427Y0170436D01*
X0144395Y0170389D01*
X0144360Y0170345D01*
X0144323Y0170302D01*
X0144283Y0170262D01*
X0144241Y0170225D01*
X0144196Y0170190D01*
X0144149Y0170159D01*
X0144100Y0170130D01*
X0144050Y0170104D01*
X0143998Y0170082D01*
X0143945Y0170063D01*
X0143323Y0171385D02*
X0143360Y0171420D01*
X0143398Y0171453D01*
X0143439Y0171484D01*
X0143481Y0171511D01*
X0143526Y0171536D01*
X0143572Y0171557D01*
X0143619Y0171576D01*
X0143667Y0171591D01*
X0143717Y0171603D01*
X0143767Y0171611D01*
X0143817Y0171616D01*
X0143868Y0171618D01*
X0143918Y0171616D01*
X0143968Y0171611D01*
X0144017Y0171602D01*
X0144065Y0171590D01*
X0144113Y0171574D01*
X0144159Y0171555D01*
X0144203Y0171532D01*
X0144246Y0171507D01*
X0144287Y0171478D01*
X0144326Y0171447D01*
X0144363Y0171413D01*
X0144397Y0171376D01*
X0144428Y0171337D01*
X0144457Y0171296D01*
X0144482Y0171253D01*
X0144505Y0171209D01*
X0144524Y0171163D01*
X0144540Y0171115D01*
X0144552Y0171067D01*
X0144561Y0171018D01*
X0144566Y0170968D01*
X0144568Y0170918D01*
X0144605Y0179162D02*
X0144605Y0180096D01*
X0144604Y0180096D02*
X0144602Y0180145D01*
X0144596Y0180193D01*
X0144587Y0180241D01*
X0144574Y0180288D01*
X0144557Y0180334D01*
X0144536Y0180378D01*
X0144512Y0180421D01*
X0144485Y0180462D01*
X0144455Y0180500D01*
X0144422Y0180536D01*
X0144386Y0180569D01*
X0144348Y0180599D01*
X0144307Y0180626D01*
X0144264Y0180650D01*
X0144220Y0180671D01*
X0144174Y0180688D01*
X0144127Y0180701D01*
X0144079Y0180710D01*
X0144031Y0180716D01*
X0143982Y0180718D01*
X0143933Y0180716D01*
X0143885Y0180710D01*
X0143837Y0180701D01*
X0143790Y0180688D01*
X0143744Y0180671D01*
X0143700Y0180650D01*
X0143657Y0180626D01*
X0143616Y0180599D01*
X0143578Y0180569D01*
X0143542Y0180536D01*
X0143509Y0180500D01*
X0143479Y0180462D01*
X0143452Y0180421D01*
X0143428Y0180378D01*
X0143407Y0180334D01*
X0143390Y0180288D01*
X0143377Y0180241D01*
X0143368Y0180193D01*
X0143362Y0180145D01*
X0143360Y0180096D01*
X0143360Y0179473D01*
X0143360Y0179940D02*
X0143358Y0179996D01*
X0143352Y0180051D01*
X0143342Y0180105D01*
X0143328Y0180159D01*
X0143311Y0180212D01*
X0143290Y0180263D01*
X0143265Y0180313D01*
X0143236Y0180361D01*
X0143205Y0180406D01*
X0143170Y0180449D01*
X0143132Y0180490D01*
X0143091Y0180528D01*
X0143048Y0180563D01*
X0143003Y0180594D01*
X0142955Y0180623D01*
X0142905Y0180648D01*
X0142854Y0180669D01*
X0142801Y0180686D01*
X0142747Y0180700D01*
X0142693Y0180710D01*
X0142638Y0180716D01*
X0142582Y0180718D01*
X0142526Y0180716D01*
X0142471Y0180710D01*
X0142417Y0180700D01*
X0142363Y0180686D01*
X0142310Y0180669D01*
X0142259Y0180648D01*
X0142209Y0180623D01*
X0142161Y0180594D01*
X0142116Y0180563D01*
X0142073Y0180528D01*
X0142032Y0180490D01*
X0141994Y0180449D01*
X0141959Y0180406D01*
X0141928Y0180361D01*
X0141899Y0180313D01*
X0141874Y0180263D01*
X0141853Y0180212D01*
X0141836Y0180159D01*
X0141822Y0180105D01*
X0141812Y0180051D01*
X0141806Y0179996D01*
X0141804Y0179940D01*
X0141805Y0179940D02*
X0141805Y0179162D01*
X0168805Y0183732D02*
X0170049Y0183732D01*
X0169427Y0184199D02*
X0169427Y0182643D01*
X0171605Y0183266D01*
X0169663Y0156640D02*
X0169663Y0155084D01*
X0171841Y0155706D01*
X0170285Y0156173D02*
X0169041Y0156173D01*
M02*
