G75*
%MOIN*%
%OFA0B0*%
%FSLAX25Y25*%
%IPPOS*%
%LPD*%
%AMOC8*
5,1,8,0,0,1.08239X$1,22.5*
%
%ADD10C,0.02572*%
%ADD11C,0.03581*%
%ADD12OC8,0.06800*%
%ADD13R,0.09600X0.05600*%
%ADD14R,0.09461X0.14973*%
%ADD15C,0.04178*%
%ADD16C,0.03981*%
%ADD17C,0.03824*%
D10*
X0013841Y0013841D03*
X0013841Y0108329D03*
X0011006Y0190376D03*
X0188329Y0108880D03*
X0192109Y0190534D03*
X0188014Y0013211D03*
D11*
X0122148Y0046676D03*
X0111597Y0046676D03*
X0111557Y0057227D03*
X0101046Y0057227D03*
X0101046Y0046676D03*
X0090494Y0046676D03*
X0079943Y0046676D03*
X0090494Y0057227D03*
X0090494Y0036124D03*
X0101046Y0036124D03*
X0111597Y0036124D03*
D12*
X0067502Y0121557D03*
X0074353Y0129195D03*
X0067187Y0137581D03*
X0074983Y0145416D03*
X0067345Y0153014D03*
X0074195Y0161479D03*
X0067187Y0168447D03*
X0017187Y0168447D03*
X0017345Y0153014D03*
X0017187Y0137581D03*
X0017502Y0121557D03*
X0124353Y0129195D03*
X0133250Y0131321D03*
X0124983Y0145416D03*
X0134038Y0147109D03*
X0124195Y0161479D03*
X0133880Y0163014D03*
X0133880Y0179077D03*
X0183880Y0179077D03*
X0183880Y0163014D03*
X0184038Y0147109D03*
X0183250Y0131321D03*
D13*
X0146405Y0129083D03*
X0146641Y0138284D03*
X0146641Y0147384D03*
X0146641Y0156484D03*
X0146405Y0165843D03*
X0146405Y0174943D03*
X0146405Y0184043D03*
X0089318Y0180421D03*
X0089318Y0171321D03*
X0089318Y0162221D03*
X0089239Y0153020D03*
X0089239Y0143920D03*
X0089239Y0134820D03*
X0089161Y0125461D03*
X0089161Y0116361D03*
X0089161Y0107261D03*
X0146405Y0110883D03*
X0146405Y0119983D03*
X0146562Y0101051D03*
X0146562Y0091951D03*
X0146562Y0082851D03*
X0030578Y0085056D03*
X0030578Y0094156D03*
X0030578Y0103256D03*
X0030499Y0112615D03*
X0030499Y0121715D03*
X0030499Y0130815D03*
X0030578Y0140331D03*
X0030578Y0149431D03*
X0030578Y0158531D03*
X0030342Y0168048D03*
X0030342Y0177148D03*
X0030342Y0186248D03*
D14*
X0054743Y0177148D03*
X0054979Y0149431D03*
X0054900Y0121715D03*
X0054979Y0094156D03*
X0113561Y0116361D03*
X0113640Y0143920D03*
X0113719Y0171321D03*
X0170806Y0174943D03*
X0171042Y0147384D03*
X0170806Y0119983D03*
X0170963Y0091951D03*
D15*
X0082502Y0130219D03*
X0016361Y0145180D03*
D16*
X0044628Y0118250D03*
X0054825Y0110869D03*
X0042817Y0103762D03*
X0042975Y0085337D03*
X0054786Y0078565D03*
X0065327Y0086804D03*
X0067758Y0094412D03*
X0078408Y0097463D03*
X0109589Y0104451D03*
X0119038Y0098408D03*
X0123762Y0094786D03*
X0130061Y0097709D03*
X0121892Y0110790D03*
X0157620Y0083605D03*
X0157620Y0076046D03*
X0121518Y0171164D03*
X0126400Y0175396D03*
X0098782Y0176026D03*
X0080908Y0175278D03*
X0075416Y0172463D03*
X0058743Y0159412D03*
X0022050Y0185809D03*
X0022660Y0078024D03*
D17*
X0082522Y0138644D03*
M02*
