G75*
%MOIN*%
%OFA0B0*%
%FSLAX25Y25*%
%IPPOS*%
%LPD*%
%AMOC8*
5,1,8,0,0,1.08239X$1,22.5*
%
%ADD10C,0.00600*%
%ADD11R,0.01800X0.03200*%
D10*
X0096991Y0015888D02*
X0096991Y0030534D01*
X0105180Y0030534D02*
X0105180Y0015888D01*
X0105180Y0015574D02*
X0105300Y0015468D01*
X0105417Y0015359D01*
X0105532Y0015247D01*
X0105644Y0015133D01*
X0105753Y0015016D01*
X0105859Y0014896D01*
X0105963Y0014773D01*
X0106063Y0014648D01*
X0106159Y0014521D01*
X0106253Y0014391D01*
X0106344Y0014259D01*
X0106431Y0014125D01*
X0106514Y0013988D01*
X0106595Y0013850D01*
X0106672Y0013709D01*
X0106745Y0013567D01*
X0106815Y0013423D01*
X0106881Y0013277D01*
X0106943Y0013130D01*
X0107002Y0012981D01*
X0107057Y0012830D01*
X0107109Y0012679D01*
X0107156Y0012526D01*
X0107200Y0012372D01*
X0107240Y0012217D01*
X0107276Y0012061D01*
X0107308Y0011904D01*
X0107336Y0011746D01*
X0107360Y0011588D01*
X0107381Y0011429D01*
X0107397Y0011270D01*
X0107409Y0011110D01*
X0107418Y0010950D01*
X0107422Y0010790D01*
X0107423Y0010630D01*
X0107419Y0010470D01*
X0107412Y0010310D01*
X0107400Y0010151D01*
X0107385Y0009991D01*
X0107365Y0009832D01*
X0107342Y0009674D01*
X0107315Y0009516D01*
X0107283Y0009359D01*
X0107248Y0009203D01*
X0107209Y0009048D01*
X0107166Y0008893D01*
X0107120Y0008740D01*
X0107069Y0008588D01*
X0107015Y0008438D01*
X0106957Y0008288D01*
X0106895Y0008141D01*
X0106830Y0007994D01*
X0106761Y0007850D01*
X0106689Y0007707D01*
X0106613Y0007566D01*
X0106533Y0007427D01*
X0106450Y0007290D01*
X0106364Y0007156D01*
X0106274Y0007023D01*
X0106181Y0006893D01*
X0106085Y0006765D01*
X0105986Y0006639D01*
X0105883Y0006516D01*
X0105778Y0006395D01*
X0105669Y0006278D01*
X0105558Y0006163D01*
X0105444Y0006050D01*
X0105327Y0005941D01*
X0105208Y0005834D01*
X0105085Y0005731D01*
X0104961Y0005631D01*
X0104833Y0005533D01*
X0104704Y0005439D01*
X0104572Y0005349D01*
X0104438Y0005261D01*
X0104302Y0005177D01*
X0104163Y0005096D01*
X0104023Y0005019D01*
X0103881Y0004945D01*
X0103737Y0004875D01*
X0103592Y0004808D01*
X0103444Y0004746D01*
X0103296Y0004686D01*
X0103145Y0004631D01*
X0102994Y0004579D01*
X0102841Y0004531D01*
X0102687Y0004487D01*
X0102532Y0004447D01*
X0102376Y0004410D01*
X0102220Y0004378D01*
X0102062Y0004349D01*
X0101904Y0004324D01*
X0101745Y0004303D01*
X0101586Y0004287D01*
X0101426Y0004274D01*
X0101266Y0004265D01*
X0101106Y0004260D01*
X0100946Y0004259D01*
X0100786Y0004262D01*
X0100626Y0004269D01*
X0100467Y0004280D01*
X0100307Y0004295D01*
X0100148Y0004314D01*
X0099990Y0004337D01*
X0099832Y0004364D01*
X0099675Y0004395D01*
X0099519Y0004430D01*
X0099363Y0004468D01*
X0099209Y0004511D01*
X0099055Y0004557D01*
X0098903Y0004607D01*
X0098753Y0004661D01*
X0098603Y0004718D01*
X0098455Y0004779D01*
X0098309Y0004844D01*
X0098164Y0004913D01*
X0098021Y0004985D01*
X0097880Y0005061D01*
X0097741Y0005140D01*
X0097604Y0005222D01*
X0097469Y0005308D01*
X0097336Y0005398D01*
X0097205Y0005490D01*
X0097077Y0005586D01*
X0096951Y0005685D01*
X0096828Y0005787D01*
X0096707Y0005892D01*
X0096589Y0006000D01*
X0096473Y0006111D01*
X0096361Y0006225D01*
X0096251Y0006342D01*
X0096144Y0006461D01*
X0096041Y0006583D01*
X0095940Y0006707D01*
X0095842Y0006834D01*
X0095748Y0006963D01*
X0095657Y0007095D01*
X0095569Y0007229D01*
X0095484Y0007365D01*
X0095403Y0007503D01*
X0095326Y0007643D01*
X0095251Y0007785D01*
X0095181Y0007929D01*
X0095114Y0008074D01*
X0095051Y0008221D01*
X0094991Y0008370D01*
X0094935Y0008520D01*
X0094883Y0008671D01*
X0094834Y0008824D01*
X0094790Y0008977D01*
X0094749Y0009132D01*
X0094712Y0009288D01*
X0094679Y0009445D01*
X0094650Y0009602D01*
X0094625Y0009760D01*
X0094604Y0009919D01*
X0094586Y0010078D01*
X0094573Y0010238D01*
X0094564Y0010397D01*
X0094558Y0010557D01*
X0094557Y0010718D01*
X0094560Y0010878D01*
X0094566Y0011038D01*
X0094577Y0011197D01*
X0094591Y0011357D01*
X0094610Y0011516D01*
X0094632Y0011674D01*
X0094659Y0011832D01*
X0094689Y0011989D01*
X0094723Y0012146D01*
X0094762Y0012301D01*
X0094804Y0012456D01*
X0094849Y0012609D01*
X0094899Y0012761D01*
X0094952Y0012912D01*
X0095009Y0013062D01*
X0095070Y0013210D01*
X0095135Y0013357D01*
X0095203Y0013502D01*
X0095275Y0013645D01*
X0095350Y0013786D01*
X0095429Y0013925D01*
X0095511Y0014063D01*
X0095596Y0014198D01*
X0095685Y0014331D01*
X0095778Y0014462D01*
X0095873Y0014591D01*
X0095972Y0014717D01*
X0096073Y0014840D01*
X0096178Y0014962D01*
X0096286Y0015080D01*
X0096396Y0015196D01*
X0096510Y0015309D01*
X0096626Y0015419D01*
X0096745Y0015526D01*
X0096867Y0015630D01*
X0096991Y0015731D01*
X0061002Y0114557D02*
X0024002Y0114557D01*
X0023942Y0114559D01*
X0023881Y0114564D01*
X0023822Y0114573D01*
X0023763Y0114586D01*
X0023704Y0114602D01*
X0023647Y0114622D01*
X0023592Y0114645D01*
X0023537Y0114672D01*
X0023485Y0114701D01*
X0023434Y0114734D01*
X0023385Y0114770D01*
X0023339Y0114808D01*
X0023295Y0114850D01*
X0023253Y0114894D01*
X0023215Y0114940D01*
X0023179Y0114989D01*
X0023146Y0115040D01*
X0023117Y0115092D01*
X0023090Y0115147D01*
X0023067Y0115202D01*
X0023047Y0115259D01*
X0023031Y0115318D01*
X0023018Y0115377D01*
X0023009Y0115436D01*
X0023004Y0115497D01*
X0023002Y0115557D01*
X0023002Y0127557D01*
X0023004Y0127617D01*
X0023009Y0127678D01*
X0023018Y0127737D01*
X0023031Y0127796D01*
X0023047Y0127855D01*
X0023067Y0127912D01*
X0023090Y0127967D01*
X0023117Y0128022D01*
X0023146Y0128074D01*
X0023179Y0128125D01*
X0023215Y0128174D01*
X0023253Y0128220D01*
X0023295Y0128264D01*
X0023339Y0128306D01*
X0023385Y0128344D01*
X0023434Y0128380D01*
X0023485Y0128413D01*
X0023537Y0128442D01*
X0023592Y0128469D01*
X0023647Y0128492D01*
X0023704Y0128512D01*
X0023763Y0128528D01*
X0023822Y0128541D01*
X0023881Y0128550D01*
X0023942Y0128555D01*
X0024002Y0128557D01*
X0061002Y0128557D01*
X0061062Y0128555D01*
X0061123Y0128550D01*
X0061182Y0128541D01*
X0061241Y0128528D01*
X0061300Y0128512D01*
X0061357Y0128492D01*
X0061412Y0128469D01*
X0061467Y0128442D01*
X0061519Y0128413D01*
X0061570Y0128380D01*
X0061619Y0128344D01*
X0061665Y0128306D01*
X0061709Y0128264D01*
X0061751Y0128220D01*
X0061789Y0128174D01*
X0061825Y0128125D01*
X0061858Y0128074D01*
X0061887Y0128022D01*
X0061914Y0127967D01*
X0061937Y0127912D01*
X0061957Y0127855D01*
X0061973Y0127796D01*
X0061986Y0127737D01*
X0061995Y0127678D01*
X0062000Y0127617D01*
X0062002Y0127557D01*
X0062002Y0115557D01*
X0062000Y0115497D01*
X0061995Y0115436D01*
X0061986Y0115377D01*
X0061973Y0115318D01*
X0061957Y0115259D01*
X0061937Y0115202D01*
X0061914Y0115147D01*
X0061887Y0115092D01*
X0061858Y0115040D01*
X0061825Y0114989D01*
X0061789Y0114940D01*
X0061751Y0114894D01*
X0061709Y0114850D01*
X0061665Y0114808D01*
X0061619Y0114770D01*
X0061570Y0114734D01*
X0061519Y0114701D01*
X0061467Y0114672D01*
X0061412Y0114645D01*
X0061357Y0114622D01*
X0061300Y0114602D01*
X0061241Y0114586D01*
X0061182Y0114573D01*
X0061123Y0114564D01*
X0061062Y0114559D01*
X0061002Y0114557D01*
X0060687Y0130581D02*
X0023687Y0130581D01*
X0023627Y0130583D01*
X0023566Y0130588D01*
X0023507Y0130597D01*
X0023448Y0130610D01*
X0023389Y0130626D01*
X0023332Y0130646D01*
X0023277Y0130669D01*
X0023222Y0130696D01*
X0023170Y0130725D01*
X0023119Y0130758D01*
X0023070Y0130794D01*
X0023024Y0130832D01*
X0022980Y0130874D01*
X0022938Y0130918D01*
X0022900Y0130964D01*
X0022864Y0131013D01*
X0022831Y0131064D01*
X0022802Y0131116D01*
X0022775Y0131171D01*
X0022752Y0131226D01*
X0022732Y0131283D01*
X0022716Y0131342D01*
X0022703Y0131401D01*
X0022694Y0131460D01*
X0022689Y0131521D01*
X0022687Y0131581D01*
X0022687Y0143581D01*
X0022689Y0143641D01*
X0022694Y0143702D01*
X0022703Y0143761D01*
X0022716Y0143820D01*
X0022732Y0143879D01*
X0022752Y0143936D01*
X0022775Y0143991D01*
X0022802Y0144046D01*
X0022831Y0144098D01*
X0022864Y0144149D01*
X0022900Y0144198D01*
X0022938Y0144244D01*
X0022980Y0144288D01*
X0023024Y0144330D01*
X0023070Y0144368D01*
X0023119Y0144404D01*
X0023170Y0144437D01*
X0023222Y0144466D01*
X0023277Y0144493D01*
X0023332Y0144516D01*
X0023389Y0144536D01*
X0023448Y0144552D01*
X0023507Y0144565D01*
X0023566Y0144574D01*
X0023627Y0144579D01*
X0023687Y0144581D01*
X0060687Y0144581D01*
X0060747Y0144579D01*
X0060808Y0144574D01*
X0060867Y0144565D01*
X0060926Y0144552D01*
X0060985Y0144536D01*
X0061042Y0144516D01*
X0061097Y0144493D01*
X0061152Y0144466D01*
X0061204Y0144437D01*
X0061255Y0144404D01*
X0061304Y0144368D01*
X0061350Y0144330D01*
X0061394Y0144288D01*
X0061436Y0144244D01*
X0061474Y0144198D01*
X0061510Y0144149D01*
X0061543Y0144098D01*
X0061572Y0144046D01*
X0061599Y0143991D01*
X0061622Y0143936D01*
X0061642Y0143879D01*
X0061658Y0143820D01*
X0061671Y0143761D01*
X0061680Y0143702D01*
X0061685Y0143641D01*
X0061687Y0143581D01*
X0061687Y0131581D01*
X0061685Y0131521D01*
X0061680Y0131460D01*
X0061671Y0131401D01*
X0061658Y0131342D01*
X0061642Y0131283D01*
X0061622Y0131226D01*
X0061599Y0131171D01*
X0061572Y0131116D01*
X0061543Y0131064D01*
X0061510Y0131013D01*
X0061474Y0130964D01*
X0061436Y0130918D01*
X0061394Y0130874D01*
X0061350Y0130832D01*
X0061304Y0130794D01*
X0061255Y0130758D01*
X0061204Y0130725D01*
X0061152Y0130696D01*
X0061097Y0130669D01*
X0061042Y0130646D01*
X0060985Y0130626D01*
X0060926Y0130610D01*
X0060867Y0130597D01*
X0060808Y0130588D01*
X0060747Y0130583D01*
X0060687Y0130581D01*
X0060845Y0146014D02*
X0023845Y0146014D01*
X0023785Y0146016D01*
X0023724Y0146021D01*
X0023665Y0146030D01*
X0023606Y0146043D01*
X0023547Y0146059D01*
X0023490Y0146079D01*
X0023435Y0146102D01*
X0023380Y0146129D01*
X0023328Y0146158D01*
X0023277Y0146191D01*
X0023228Y0146227D01*
X0023182Y0146265D01*
X0023138Y0146307D01*
X0023096Y0146351D01*
X0023058Y0146397D01*
X0023022Y0146446D01*
X0022989Y0146497D01*
X0022960Y0146549D01*
X0022933Y0146604D01*
X0022910Y0146659D01*
X0022890Y0146716D01*
X0022874Y0146775D01*
X0022861Y0146834D01*
X0022852Y0146893D01*
X0022847Y0146954D01*
X0022845Y0147014D01*
X0022845Y0159014D01*
X0022847Y0159074D01*
X0022852Y0159135D01*
X0022861Y0159194D01*
X0022874Y0159253D01*
X0022890Y0159312D01*
X0022910Y0159369D01*
X0022933Y0159424D01*
X0022960Y0159479D01*
X0022989Y0159531D01*
X0023022Y0159582D01*
X0023058Y0159631D01*
X0023096Y0159677D01*
X0023138Y0159721D01*
X0023182Y0159763D01*
X0023228Y0159801D01*
X0023277Y0159837D01*
X0023328Y0159870D01*
X0023380Y0159899D01*
X0023435Y0159926D01*
X0023490Y0159949D01*
X0023547Y0159969D01*
X0023606Y0159985D01*
X0023665Y0159998D01*
X0023724Y0160007D01*
X0023785Y0160012D01*
X0023845Y0160014D01*
X0060845Y0160014D01*
X0060905Y0160012D01*
X0060966Y0160007D01*
X0061025Y0159998D01*
X0061084Y0159985D01*
X0061143Y0159969D01*
X0061200Y0159949D01*
X0061255Y0159926D01*
X0061310Y0159899D01*
X0061362Y0159870D01*
X0061413Y0159837D01*
X0061462Y0159801D01*
X0061508Y0159763D01*
X0061552Y0159721D01*
X0061594Y0159677D01*
X0061632Y0159631D01*
X0061668Y0159582D01*
X0061701Y0159531D01*
X0061730Y0159479D01*
X0061757Y0159424D01*
X0061780Y0159369D01*
X0061800Y0159312D01*
X0061816Y0159253D01*
X0061829Y0159194D01*
X0061838Y0159135D01*
X0061843Y0159074D01*
X0061845Y0159014D01*
X0061845Y0147014D01*
X0061843Y0146954D01*
X0061838Y0146893D01*
X0061829Y0146834D01*
X0061816Y0146775D01*
X0061800Y0146716D01*
X0061780Y0146659D01*
X0061757Y0146604D01*
X0061730Y0146549D01*
X0061701Y0146497D01*
X0061668Y0146446D01*
X0061632Y0146397D01*
X0061594Y0146351D01*
X0061552Y0146307D01*
X0061508Y0146265D01*
X0061462Y0146227D01*
X0061413Y0146191D01*
X0061362Y0146158D01*
X0061310Y0146129D01*
X0061255Y0146102D01*
X0061200Y0146079D01*
X0061143Y0146059D01*
X0061084Y0146043D01*
X0061025Y0146030D01*
X0060966Y0146021D01*
X0060905Y0146016D01*
X0060845Y0146014D01*
X0060687Y0161447D02*
X0023687Y0161447D01*
X0023627Y0161449D01*
X0023566Y0161454D01*
X0023507Y0161463D01*
X0023448Y0161476D01*
X0023389Y0161492D01*
X0023332Y0161512D01*
X0023277Y0161535D01*
X0023222Y0161562D01*
X0023170Y0161591D01*
X0023119Y0161624D01*
X0023070Y0161660D01*
X0023024Y0161698D01*
X0022980Y0161740D01*
X0022938Y0161784D01*
X0022900Y0161830D01*
X0022864Y0161879D01*
X0022831Y0161930D01*
X0022802Y0161982D01*
X0022775Y0162037D01*
X0022752Y0162092D01*
X0022732Y0162149D01*
X0022716Y0162208D01*
X0022703Y0162267D01*
X0022694Y0162326D01*
X0022689Y0162387D01*
X0022687Y0162447D01*
X0022687Y0174447D01*
X0022689Y0174507D01*
X0022694Y0174568D01*
X0022703Y0174627D01*
X0022716Y0174686D01*
X0022732Y0174745D01*
X0022752Y0174802D01*
X0022775Y0174857D01*
X0022802Y0174912D01*
X0022831Y0174964D01*
X0022864Y0175015D01*
X0022900Y0175064D01*
X0022938Y0175110D01*
X0022980Y0175154D01*
X0023024Y0175196D01*
X0023070Y0175234D01*
X0023119Y0175270D01*
X0023170Y0175303D01*
X0023222Y0175332D01*
X0023277Y0175359D01*
X0023332Y0175382D01*
X0023389Y0175402D01*
X0023448Y0175418D01*
X0023507Y0175431D01*
X0023566Y0175440D01*
X0023627Y0175445D01*
X0023687Y0175447D01*
X0060687Y0175447D01*
X0060747Y0175445D01*
X0060808Y0175440D01*
X0060867Y0175431D01*
X0060926Y0175418D01*
X0060985Y0175402D01*
X0061042Y0175382D01*
X0061097Y0175359D01*
X0061152Y0175332D01*
X0061204Y0175303D01*
X0061255Y0175270D01*
X0061304Y0175234D01*
X0061350Y0175196D01*
X0061394Y0175154D01*
X0061436Y0175110D01*
X0061474Y0175064D01*
X0061510Y0175015D01*
X0061543Y0174964D01*
X0061572Y0174912D01*
X0061599Y0174857D01*
X0061622Y0174802D01*
X0061642Y0174745D01*
X0061658Y0174686D01*
X0061671Y0174627D01*
X0061680Y0174568D01*
X0061685Y0174507D01*
X0061687Y0174447D01*
X0061687Y0162447D01*
X0061685Y0162387D01*
X0061680Y0162326D01*
X0061671Y0162267D01*
X0061658Y0162208D01*
X0061642Y0162149D01*
X0061622Y0162092D01*
X0061599Y0162037D01*
X0061572Y0161982D01*
X0061543Y0161930D01*
X0061510Y0161879D01*
X0061474Y0161830D01*
X0061436Y0161784D01*
X0061394Y0161740D01*
X0061350Y0161698D01*
X0061304Y0161660D01*
X0061255Y0161624D01*
X0061204Y0161591D01*
X0061152Y0161562D01*
X0061097Y0161535D01*
X0061042Y0161512D01*
X0060985Y0161492D01*
X0060926Y0161476D01*
X0060867Y0161463D01*
X0060808Y0161454D01*
X0060747Y0161449D01*
X0060687Y0161447D01*
X0079695Y0155479D02*
X0079695Y0167479D01*
X0079697Y0167539D01*
X0079702Y0167600D01*
X0079711Y0167659D01*
X0079724Y0167718D01*
X0079740Y0167777D01*
X0079760Y0167834D01*
X0079783Y0167889D01*
X0079810Y0167944D01*
X0079839Y0167996D01*
X0079872Y0168047D01*
X0079908Y0168096D01*
X0079946Y0168142D01*
X0079988Y0168186D01*
X0080032Y0168228D01*
X0080078Y0168266D01*
X0080127Y0168302D01*
X0080178Y0168335D01*
X0080230Y0168364D01*
X0080285Y0168391D01*
X0080340Y0168414D01*
X0080397Y0168434D01*
X0080456Y0168450D01*
X0080515Y0168463D01*
X0080574Y0168472D01*
X0080635Y0168477D01*
X0080695Y0168479D01*
X0117695Y0168479D01*
X0117755Y0168477D01*
X0117816Y0168472D01*
X0117875Y0168463D01*
X0117934Y0168450D01*
X0117993Y0168434D01*
X0118050Y0168414D01*
X0118105Y0168391D01*
X0118160Y0168364D01*
X0118212Y0168335D01*
X0118263Y0168302D01*
X0118312Y0168266D01*
X0118358Y0168228D01*
X0118402Y0168186D01*
X0118444Y0168142D01*
X0118482Y0168096D01*
X0118518Y0168047D01*
X0118551Y0167996D01*
X0118580Y0167944D01*
X0118607Y0167889D01*
X0118630Y0167834D01*
X0118650Y0167777D01*
X0118666Y0167718D01*
X0118679Y0167659D01*
X0118688Y0167600D01*
X0118693Y0167539D01*
X0118695Y0167479D01*
X0118695Y0155479D01*
X0118693Y0155419D01*
X0118688Y0155358D01*
X0118679Y0155299D01*
X0118666Y0155240D01*
X0118650Y0155181D01*
X0118630Y0155124D01*
X0118607Y0155069D01*
X0118580Y0155014D01*
X0118551Y0154962D01*
X0118518Y0154911D01*
X0118482Y0154862D01*
X0118444Y0154816D01*
X0118402Y0154772D01*
X0118358Y0154730D01*
X0118312Y0154692D01*
X0118263Y0154656D01*
X0118212Y0154623D01*
X0118160Y0154594D01*
X0118105Y0154567D01*
X0118050Y0154544D01*
X0117993Y0154524D01*
X0117934Y0154508D01*
X0117875Y0154495D01*
X0117816Y0154486D01*
X0117755Y0154481D01*
X0117695Y0154479D01*
X0080695Y0154479D01*
X0080635Y0154481D01*
X0080574Y0154486D01*
X0080515Y0154495D01*
X0080456Y0154508D01*
X0080397Y0154524D01*
X0080340Y0154544D01*
X0080285Y0154567D01*
X0080230Y0154594D01*
X0080178Y0154623D01*
X0080127Y0154656D01*
X0080078Y0154692D01*
X0080032Y0154730D01*
X0079988Y0154772D01*
X0079946Y0154816D01*
X0079908Y0154862D01*
X0079872Y0154911D01*
X0079839Y0154962D01*
X0079810Y0155014D01*
X0079783Y0155069D01*
X0079760Y0155124D01*
X0079740Y0155181D01*
X0079724Y0155240D01*
X0079711Y0155299D01*
X0079702Y0155358D01*
X0079697Y0155419D01*
X0079695Y0155479D01*
X0081483Y0152416D02*
X0118483Y0152416D01*
X0118543Y0152414D01*
X0118604Y0152409D01*
X0118663Y0152400D01*
X0118722Y0152387D01*
X0118781Y0152371D01*
X0118838Y0152351D01*
X0118893Y0152328D01*
X0118948Y0152301D01*
X0119000Y0152272D01*
X0119051Y0152239D01*
X0119100Y0152203D01*
X0119146Y0152165D01*
X0119190Y0152123D01*
X0119232Y0152079D01*
X0119270Y0152033D01*
X0119306Y0151984D01*
X0119339Y0151933D01*
X0119368Y0151881D01*
X0119395Y0151826D01*
X0119418Y0151771D01*
X0119438Y0151714D01*
X0119454Y0151655D01*
X0119467Y0151596D01*
X0119476Y0151537D01*
X0119481Y0151476D01*
X0119483Y0151416D01*
X0119483Y0139416D01*
X0119481Y0139356D01*
X0119476Y0139295D01*
X0119467Y0139236D01*
X0119454Y0139177D01*
X0119438Y0139118D01*
X0119418Y0139061D01*
X0119395Y0139006D01*
X0119368Y0138951D01*
X0119339Y0138899D01*
X0119306Y0138848D01*
X0119270Y0138799D01*
X0119232Y0138753D01*
X0119190Y0138709D01*
X0119146Y0138667D01*
X0119100Y0138629D01*
X0119051Y0138593D01*
X0119000Y0138560D01*
X0118948Y0138531D01*
X0118893Y0138504D01*
X0118838Y0138481D01*
X0118781Y0138461D01*
X0118722Y0138445D01*
X0118663Y0138432D01*
X0118604Y0138423D01*
X0118543Y0138418D01*
X0118483Y0138416D01*
X0081483Y0138416D01*
X0081423Y0138418D01*
X0081362Y0138423D01*
X0081303Y0138432D01*
X0081244Y0138445D01*
X0081185Y0138461D01*
X0081128Y0138481D01*
X0081073Y0138504D01*
X0081018Y0138531D01*
X0080966Y0138560D01*
X0080915Y0138593D01*
X0080866Y0138629D01*
X0080820Y0138667D01*
X0080776Y0138709D01*
X0080734Y0138753D01*
X0080696Y0138799D01*
X0080660Y0138848D01*
X0080627Y0138899D01*
X0080598Y0138951D01*
X0080571Y0139006D01*
X0080548Y0139061D01*
X0080528Y0139118D01*
X0080512Y0139177D01*
X0080499Y0139236D01*
X0080490Y0139295D01*
X0080485Y0139356D01*
X0080483Y0139416D01*
X0080483Y0151416D01*
X0080485Y0151476D01*
X0080490Y0151537D01*
X0080499Y0151596D01*
X0080512Y0151655D01*
X0080528Y0151714D01*
X0080548Y0151771D01*
X0080571Y0151826D01*
X0080598Y0151881D01*
X0080627Y0151933D01*
X0080660Y0151984D01*
X0080696Y0152033D01*
X0080734Y0152079D01*
X0080776Y0152123D01*
X0080820Y0152165D01*
X0080866Y0152203D01*
X0080915Y0152239D01*
X0080966Y0152272D01*
X0081018Y0152301D01*
X0081073Y0152328D01*
X0081128Y0152351D01*
X0081185Y0152371D01*
X0081244Y0152387D01*
X0081303Y0152400D01*
X0081362Y0152409D01*
X0081423Y0152414D01*
X0081483Y0152416D01*
X0080853Y0136195D02*
X0117853Y0136195D01*
X0117913Y0136193D01*
X0117974Y0136188D01*
X0118033Y0136179D01*
X0118092Y0136166D01*
X0118151Y0136150D01*
X0118208Y0136130D01*
X0118263Y0136107D01*
X0118318Y0136080D01*
X0118370Y0136051D01*
X0118421Y0136018D01*
X0118470Y0135982D01*
X0118516Y0135944D01*
X0118560Y0135902D01*
X0118602Y0135858D01*
X0118640Y0135812D01*
X0118676Y0135763D01*
X0118709Y0135712D01*
X0118738Y0135660D01*
X0118765Y0135605D01*
X0118788Y0135550D01*
X0118808Y0135493D01*
X0118824Y0135434D01*
X0118837Y0135375D01*
X0118846Y0135316D01*
X0118851Y0135255D01*
X0118853Y0135195D01*
X0118853Y0123195D01*
X0118851Y0123135D01*
X0118846Y0123074D01*
X0118837Y0123015D01*
X0118824Y0122956D01*
X0118808Y0122897D01*
X0118788Y0122840D01*
X0118765Y0122785D01*
X0118738Y0122730D01*
X0118709Y0122678D01*
X0118676Y0122627D01*
X0118640Y0122578D01*
X0118602Y0122532D01*
X0118560Y0122488D01*
X0118516Y0122446D01*
X0118470Y0122408D01*
X0118421Y0122372D01*
X0118370Y0122339D01*
X0118318Y0122310D01*
X0118263Y0122283D01*
X0118208Y0122260D01*
X0118151Y0122240D01*
X0118092Y0122224D01*
X0118033Y0122211D01*
X0117974Y0122202D01*
X0117913Y0122197D01*
X0117853Y0122195D01*
X0080853Y0122195D01*
X0080793Y0122197D01*
X0080732Y0122202D01*
X0080673Y0122211D01*
X0080614Y0122224D01*
X0080555Y0122240D01*
X0080498Y0122260D01*
X0080443Y0122283D01*
X0080388Y0122310D01*
X0080336Y0122339D01*
X0080285Y0122372D01*
X0080236Y0122408D01*
X0080190Y0122446D01*
X0080146Y0122488D01*
X0080104Y0122532D01*
X0080066Y0122578D01*
X0080030Y0122627D01*
X0079997Y0122678D01*
X0079968Y0122730D01*
X0079941Y0122785D01*
X0079918Y0122840D01*
X0079898Y0122897D01*
X0079882Y0122956D01*
X0079869Y0123015D01*
X0079860Y0123074D01*
X0079855Y0123135D01*
X0079853Y0123195D01*
X0079853Y0135195D01*
X0079855Y0135255D01*
X0079860Y0135316D01*
X0079869Y0135375D01*
X0079882Y0135434D01*
X0079898Y0135493D01*
X0079918Y0135550D01*
X0079941Y0135605D01*
X0079968Y0135660D01*
X0079997Y0135712D01*
X0080030Y0135763D01*
X0080066Y0135812D01*
X0080104Y0135858D01*
X0080146Y0135902D01*
X0080190Y0135944D01*
X0080236Y0135982D01*
X0080285Y0136018D01*
X0080336Y0136051D01*
X0080388Y0136080D01*
X0080443Y0136107D01*
X0080498Y0136130D01*
X0080555Y0136150D01*
X0080614Y0136166D01*
X0080673Y0136179D01*
X0080732Y0136188D01*
X0080793Y0136193D01*
X0080853Y0136195D01*
X0138750Y0137321D02*
X0138750Y0125321D01*
X0138752Y0125261D01*
X0138757Y0125200D01*
X0138766Y0125141D01*
X0138779Y0125082D01*
X0138795Y0125023D01*
X0138815Y0124966D01*
X0138838Y0124911D01*
X0138865Y0124856D01*
X0138894Y0124804D01*
X0138927Y0124753D01*
X0138963Y0124704D01*
X0139001Y0124658D01*
X0139043Y0124614D01*
X0139087Y0124572D01*
X0139133Y0124534D01*
X0139182Y0124498D01*
X0139233Y0124465D01*
X0139285Y0124436D01*
X0139340Y0124409D01*
X0139395Y0124386D01*
X0139452Y0124366D01*
X0139511Y0124350D01*
X0139570Y0124337D01*
X0139629Y0124328D01*
X0139690Y0124323D01*
X0139750Y0124321D01*
X0176750Y0124321D01*
X0176810Y0124323D01*
X0176871Y0124328D01*
X0176930Y0124337D01*
X0176989Y0124350D01*
X0177048Y0124366D01*
X0177105Y0124386D01*
X0177160Y0124409D01*
X0177215Y0124436D01*
X0177267Y0124465D01*
X0177318Y0124498D01*
X0177367Y0124534D01*
X0177413Y0124572D01*
X0177457Y0124614D01*
X0177499Y0124658D01*
X0177537Y0124704D01*
X0177573Y0124753D01*
X0177606Y0124804D01*
X0177635Y0124856D01*
X0177662Y0124911D01*
X0177685Y0124966D01*
X0177705Y0125023D01*
X0177721Y0125082D01*
X0177734Y0125141D01*
X0177743Y0125200D01*
X0177748Y0125261D01*
X0177750Y0125321D01*
X0177750Y0137321D01*
X0177748Y0137381D01*
X0177743Y0137442D01*
X0177734Y0137501D01*
X0177721Y0137560D01*
X0177705Y0137619D01*
X0177685Y0137676D01*
X0177662Y0137731D01*
X0177635Y0137786D01*
X0177606Y0137838D01*
X0177573Y0137889D01*
X0177537Y0137938D01*
X0177499Y0137984D01*
X0177457Y0138028D01*
X0177413Y0138070D01*
X0177367Y0138108D01*
X0177318Y0138144D01*
X0177267Y0138177D01*
X0177215Y0138206D01*
X0177160Y0138233D01*
X0177105Y0138256D01*
X0177048Y0138276D01*
X0176989Y0138292D01*
X0176930Y0138305D01*
X0176871Y0138314D01*
X0176810Y0138319D01*
X0176750Y0138321D01*
X0139750Y0138321D01*
X0139690Y0138319D01*
X0139629Y0138314D01*
X0139570Y0138305D01*
X0139511Y0138292D01*
X0139452Y0138276D01*
X0139395Y0138256D01*
X0139340Y0138233D01*
X0139285Y0138206D01*
X0139233Y0138177D01*
X0139182Y0138144D01*
X0139133Y0138108D01*
X0139087Y0138070D01*
X0139043Y0138028D01*
X0139001Y0137984D01*
X0138963Y0137938D01*
X0138927Y0137889D01*
X0138894Y0137838D01*
X0138865Y0137786D01*
X0138838Y0137731D01*
X0138815Y0137676D01*
X0138795Y0137619D01*
X0138779Y0137560D01*
X0138766Y0137501D01*
X0138757Y0137442D01*
X0138752Y0137381D01*
X0138750Y0137321D01*
X0140538Y0140109D02*
X0177538Y0140109D01*
X0177598Y0140111D01*
X0177659Y0140116D01*
X0177718Y0140125D01*
X0177777Y0140138D01*
X0177836Y0140154D01*
X0177893Y0140174D01*
X0177948Y0140197D01*
X0178003Y0140224D01*
X0178055Y0140253D01*
X0178106Y0140286D01*
X0178155Y0140322D01*
X0178201Y0140360D01*
X0178245Y0140402D01*
X0178287Y0140446D01*
X0178325Y0140492D01*
X0178361Y0140541D01*
X0178394Y0140592D01*
X0178423Y0140644D01*
X0178450Y0140699D01*
X0178473Y0140754D01*
X0178493Y0140811D01*
X0178509Y0140870D01*
X0178522Y0140929D01*
X0178531Y0140988D01*
X0178536Y0141049D01*
X0178538Y0141109D01*
X0178538Y0153109D01*
X0178536Y0153169D01*
X0178531Y0153230D01*
X0178522Y0153289D01*
X0178509Y0153348D01*
X0178493Y0153407D01*
X0178473Y0153464D01*
X0178450Y0153519D01*
X0178423Y0153574D01*
X0178394Y0153626D01*
X0178361Y0153677D01*
X0178325Y0153726D01*
X0178287Y0153772D01*
X0178245Y0153816D01*
X0178201Y0153858D01*
X0178155Y0153896D01*
X0178106Y0153932D01*
X0178055Y0153965D01*
X0178003Y0153994D01*
X0177948Y0154021D01*
X0177893Y0154044D01*
X0177836Y0154064D01*
X0177777Y0154080D01*
X0177718Y0154093D01*
X0177659Y0154102D01*
X0177598Y0154107D01*
X0177538Y0154109D01*
X0140538Y0154109D01*
X0140478Y0154107D01*
X0140417Y0154102D01*
X0140358Y0154093D01*
X0140299Y0154080D01*
X0140240Y0154064D01*
X0140183Y0154044D01*
X0140128Y0154021D01*
X0140073Y0153994D01*
X0140021Y0153965D01*
X0139970Y0153932D01*
X0139921Y0153896D01*
X0139875Y0153858D01*
X0139831Y0153816D01*
X0139789Y0153772D01*
X0139751Y0153726D01*
X0139715Y0153677D01*
X0139682Y0153626D01*
X0139653Y0153574D01*
X0139626Y0153519D01*
X0139603Y0153464D01*
X0139583Y0153407D01*
X0139567Y0153348D01*
X0139554Y0153289D01*
X0139545Y0153230D01*
X0139540Y0153169D01*
X0139538Y0153109D01*
X0139538Y0141109D01*
X0139540Y0141049D01*
X0139545Y0140988D01*
X0139554Y0140929D01*
X0139567Y0140870D01*
X0139583Y0140811D01*
X0139603Y0140754D01*
X0139626Y0140699D01*
X0139653Y0140644D01*
X0139682Y0140592D01*
X0139715Y0140541D01*
X0139751Y0140492D01*
X0139789Y0140446D01*
X0139831Y0140402D01*
X0139875Y0140360D01*
X0139921Y0140322D01*
X0139970Y0140286D01*
X0140021Y0140253D01*
X0140073Y0140224D01*
X0140128Y0140197D01*
X0140183Y0140174D01*
X0140240Y0140154D01*
X0140299Y0140138D01*
X0140358Y0140125D01*
X0140417Y0140116D01*
X0140478Y0140111D01*
X0140538Y0140109D01*
X0140380Y0156014D02*
X0177380Y0156014D01*
X0177440Y0156016D01*
X0177501Y0156021D01*
X0177560Y0156030D01*
X0177619Y0156043D01*
X0177678Y0156059D01*
X0177735Y0156079D01*
X0177790Y0156102D01*
X0177845Y0156129D01*
X0177897Y0156158D01*
X0177948Y0156191D01*
X0177997Y0156227D01*
X0178043Y0156265D01*
X0178087Y0156307D01*
X0178129Y0156351D01*
X0178167Y0156397D01*
X0178203Y0156446D01*
X0178236Y0156497D01*
X0178265Y0156549D01*
X0178292Y0156604D01*
X0178315Y0156659D01*
X0178335Y0156716D01*
X0178351Y0156775D01*
X0178364Y0156834D01*
X0178373Y0156893D01*
X0178378Y0156954D01*
X0178380Y0157014D01*
X0178380Y0169014D01*
X0178378Y0169074D01*
X0178373Y0169135D01*
X0178364Y0169194D01*
X0178351Y0169253D01*
X0178335Y0169312D01*
X0178315Y0169369D01*
X0178292Y0169424D01*
X0178265Y0169479D01*
X0178236Y0169531D01*
X0178203Y0169582D01*
X0178167Y0169631D01*
X0178129Y0169677D01*
X0178087Y0169721D01*
X0178043Y0169763D01*
X0177997Y0169801D01*
X0177948Y0169837D01*
X0177897Y0169870D01*
X0177845Y0169899D01*
X0177790Y0169926D01*
X0177735Y0169949D01*
X0177678Y0169969D01*
X0177619Y0169985D01*
X0177560Y0169998D01*
X0177501Y0170007D01*
X0177440Y0170012D01*
X0177380Y0170014D01*
X0140380Y0170014D01*
X0140320Y0170012D01*
X0140259Y0170007D01*
X0140200Y0169998D01*
X0140141Y0169985D01*
X0140082Y0169969D01*
X0140025Y0169949D01*
X0139970Y0169926D01*
X0139915Y0169899D01*
X0139863Y0169870D01*
X0139812Y0169837D01*
X0139763Y0169801D01*
X0139717Y0169763D01*
X0139673Y0169721D01*
X0139631Y0169677D01*
X0139593Y0169631D01*
X0139557Y0169582D01*
X0139524Y0169531D01*
X0139495Y0169479D01*
X0139468Y0169424D01*
X0139445Y0169369D01*
X0139425Y0169312D01*
X0139409Y0169253D01*
X0139396Y0169194D01*
X0139387Y0169135D01*
X0139382Y0169074D01*
X0139380Y0169014D01*
X0139380Y0157014D01*
X0139382Y0156954D01*
X0139387Y0156893D01*
X0139396Y0156834D01*
X0139409Y0156775D01*
X0139425Y0156716D01*
X0139445Y0156659D01*
X0139468Y0156604D01*
X0139495Y0156549D01*
X0139524Y0156497D01*
X0139557Y0156446D01*
X0139593Y0156397D01*
X0139631Y0156351D01*
X0139673Y0156307D01*
X0139717Y0156265D01*
X0139763Y0156227D01*
X0139812Y0156191D01*
X0139863Y0156158D01*
X0139915Y0156129D01*
X0139970Y0156102D01*
X0140025Y0156079D01*
X0140082Y0156059D01*
X0140141Y0156043D01*
X0140200Y0156030D01*
X0140259Y0156021D01*
X0140320Y0156016D01*
X0140380Y0156014D01*
X0140380Y0172077D02*
X0177380Y0172077D01*
X0177440Y0172079D01*
X0177501Y0172084D01*
X0177560Y0172093D01*
X0177619Y0172106D01*
X0177678Y0172122D01*
X0177735Y0172142D01*
X0177790Y0172165D01*
X0177845Y0172192D01*
X0177897Y0172221D01*
X0177948Y0172254D01*
X0177997Y0172290D01*
X0178043Y0172328D01*
X0178087Y0172370D01*
X0178129Y0172414D01*
X0178167Y0172460D01*
X0178203Y0172509D01*
X0178236Y0172560D01*
X0178265Y0172612D01*
X0178292Y0172667D01*
X0178315Y0172722D01*
X0178335Y0172779D01*
X0178351Y0172838D01*
X0178364Y0172897D01*
X0178373Y0172956D01*
X0178378Y0173017D01*
X0178380Y0173077D01*
X0178380Y0185077D01*
X0178378Y0185137D01*
X0178373Y0185198D01*
X0178364Y0185257D01*
X0178351Y0185316D01*
X0178335Y0185375D01*
X0178315Y0185432D01*
X0178292Y0185487D01*
X0178265Y0185542D01*
X0178236Y0185594D01*
X0178203Y0185645D01*
X0178167Y0185694D01*
X0178129Y0185740D01*
X0178087Y0185784D01*
X0178043Y0185826D01*
X0177997Y0185864D01*
X0177948Y0185900D01*
X0177897Y0185933D01*
X0177845Y0185962D01*
X0177790Y0185989D01*
X0177735Y0186012D01*
X0177678Y0186032D01*
X0177619Y0186048D01*
X0177560Y0186061D01*
X0177501Y0186070D01*
X0177440Y0186075D01*
X0177380Y0186077D01*
X0140380Y0186077D01*
X0140320Y0186075D01*
X0140259Y0186070D01*
X0140200Y0186061D01*
X0140141Y0186048D01*
X0140082Y0186032D01*
X0140025Y0186012D01*
X0139970Y0185989D01*
X0139915Y0185962D01*
X0139863Y0185933D01*
X0139812Y0185900D01*
X0139763Y0185864D01*
X0139717Y0185826D01*
X0139673Y0185784D01*
X0139631Y0185740D01*
X0139593Y0185694D01*
X0139557Y0185645D01*
X0139524Y0185594D01*
X0139495Y0185542D01*
X0139468Y0185487D01*
X0139445Y0185432D01*
X0139425Y0185375D01*
X0139409Y0185316D01*
X0139396Y0185257D01*
X0139387Y0185198D01*
X0139382Y0185137D01*
X0139380Y0185077D01*
X0139380Y0173077D01*
X0139382Y0173017D01*
X0139387Y0172956D01*
X0139396Y0172897D01*
X0139409Y0172838D01*
X0139425Y0172779D01*
X0139445Y0172722D01*
X0139468Y0172667D01*
X0139495Y0172612D01*
X0139524Y0172560D01*
X0139557Y0172509D01*
X0139593Y0172460D01*
X0139631Y0172414D01*
X0139673Y0172370D01*
X0139717Y0172328D01*
X0139763Y0172290D01*
X0139812Y0172254D01*
X0139863Y0172221D01*
X0139915Y0172192D01*
X0139970Y0172165D01*
X0140025Y0172142D01*
X0140082Y0172122D01*
X0140141Y0172106D01*
X0140200Y0172093D01*
X0140259Y0172084D01*
X0140320Y0172079D01*
X0140380Y0172077D01*
D11*
X0138480Y0179077D03*
X0138480Y0163014D03*
X0138638Y0147109D03*
X0137850Y0131321D03*
X0119753Y0129195D03*
X0120383Y0145416D03*
X0119595Y0161479D03*
X0078795Y0161479D03*
X0079583Y0145416D03*
X0078953Y0129195D03*
X0062902Y0121557D03*
X0062587Y0137581D03*
X0062745Y0153014D03*
X0062587Y0168447D03*
X0021787Y0168447D03*
X0021945Y0153014D03*
X0021787Y0137581D03*
X0022102Y0121557D03*
X0178650Y0131321D03*
X0179438Y0147109D03*
X0179280Y0163014D03*
X0179280Y0179077D03*
M02*
